<?xml version="1.0" standalone="no"?>
<!DOCTYPE svg PUBLIC "-//W3C//DTD SVG 1.1//EN" "http://www.w3.org/Graphics/SVG/1.1/DTD/svg11.dtd" >
<svg xmlns="http://www.w3.org/2000/svg" xmlns:xlink="http://www.w3.org/1999/xlink" version="1.1">
<metadata>
Created by FontForge 20170731 at Mon Oct  5 01:40:45 2009
 By Aleksey,,,
Copyright (C) 1996-2005, Hoefler &#38; Frere-Jones, Inc. www.typography.com
</metadata>
<defs>
<font id="Mercury-TextG3Roman" horiz-adv-x="500" >
  <font-face 
    font-family="Mercury Text G3"
    font-weight="500"
    font-stretch="normal"
    units-per-em="1000"
    panose-1="0 0 0 0 0 0 0 0 0 0"
    ascent="800"
    descent="-200"
    x-height="448"
    cap-height="637"
    bbox="-95 -267 1011 926"
    underline-thickness="20"
    underline-position="-140"
    unicode-range="U+0020-FB02"
  />
<missing-glyph 
 />
    <glyph glyph-name=".notdef" 
 />
    <glyph glyph-name=".null" horiz-adv-x="0" 
 />
    <glyph glyph-name="nonmarkingreturn" horiz-adv-x="333" 
 />
    <glyph glyph-name="space" unicode=" " horiz-adv-x="220" 
 />
    <glyph glyph-name="exclam" unicode="!" horiz-adv-x="278" 
d="M199 585q0 -39 -45 -397h-28q-45 358 -45 397q0 32 16.5 49.5t42.5 17.5q27 0 43 -17.5t16 -49.5zM203 49q0 -26 -19 -45t-45 -19t-45 19t-19 45t19 45t45 19t45 -19t19 -45z" />
    <glyph glyph-name="quotedbl" unicode="&#x22;" horiz-adv-x="371" 
d="M346 610q0 -12 -4 -23q-13 -32 -60 -105l-46 -71l-25 12l17 81q22 102 29 116q16 32 43 32q16 0 31 -12.5t15 -29.5zM180 610q0 -18 -2 -23q-11 -28 -61 -105l-45 -71l-25 12l17 81q22 102 28 116q16 32 44 32q15 0 29.5 -12.5t14.5 -29.5z" />
    <glyph glyph-name="numbersign" unicode="#" horiz-adv-x="621" 
d="M575 385h-120l-25 -85l-21 -81h125v-47h-136l-42 -151l-55 12l43 139h-137l-42 -151l-55 12l43 139h-107v47h119l27 91l19 75h-124v47h137l44 159l54 -12l-44 -147h137l44 159l54 -12l-44 -147h106v-47zM402 385h-138l-25 -85l-21 -81h138l27 91z" />
    <glyph glyph-name="dollar" unicode="$" horiz-adv-x="547" 
d="M482 170q0 -79 -57.5 -130t-154.5 -55l-8 -104l-43 4l8 101q-83 4 -161 36l-10 171l31 2q25 -77 58 -116.5t87 -49.5l19 251q-94 35 -135 74t-41 100q0 72 56 122t144 52l7 91l43 -5l-7 -87q64 -4 133 -25l4 -149l-31 -4q-23 59 -48 90.5t-63 42.5l-17 -227
q103 -37 144.5 -78t41.5 -107zM274 588q-50 4 -86 -25.5t-36 -76.5q0 -42 23 -68t82 -49zM403 142q0 44 -25.5 71.5t-88.5 51.5l-18 -241q57 -2 94.5 30.5t37.5 87.5z" />
    <glyph glyph-name="percent" unicode="%" horiz-adv-x="810" 
d="M357 470q0 -64 -45.5 -114t-116.5 -50q-70 0 -111.5 45.5t-41.5 112.5q0 65 46 114t117 49q70 0 111 -45t41 -112zM149 -4l238 321l227 326l47 -29l-238 -320l-227 -326zM768 148q0 -64 -45.5 -114t-116.5 -50q-70 0 -111.5 45.5t-41.5 112.5q0 65 46 114t117 49
q70 0 111 -45t41 -112zM282 468q0 60 -23 92t-61 32q-37 0 -59.5 -33t-22.5 -94q0 -60 24 -92t61 -32q38 0 59.5 32t21.5 95zM527 143q0 -60 24 -92t61 -32q38 0 59.5 32t21.5 95q0 60 -23 92t-61 32q-37 0 -59.5 -33t-22.5 -94z" />
    <glyph glyph-name="ampersand" unicode="&#x26;" horiz-adv-x="705" 
d="M691 355v-32l-76 -28l-131 -165q34 -43 61 -58t71 -15q20 0 54 2l7 -24q-69 -50 -136 -50q-31 0 -58.5 18.5t-62.5 64.5q-87 -83 -184 -83q-88 0 -144.5 47.5t-56.5 122.5q0 116 130 184l37 18q-55 73 -55 130q0 62 47 101.5t116 39.5t109.5 -34.5t40.5 -84.5
q0 -42 -26.5 -76t-80.5 -68l-31 -20l138 -184l88 136l-55 29v29h198zM378 509q0 36 -20.5 58t-53.5 22q-34 0 -54.5 -21t-20.5 -56q0 -45 46 -106l28 -36q40 37 57.5 68t17.5 71zM397 98l-174 232l-16 -14q-39 -35 -56 -67t-17 -75q0 -54 38 -89t96 -35q66 0 129 48z" />
    <glyph glyph-name="quotesingle" unicode="'" horiz-adv-x="213" 
d="M185 610q0 -12 -4 -23q-11 -28 -61 -105l-45 -71l-25 12l17 81q22 102 29 116q15 32 43 32q16 0 31 -12.5t15 -29.5z" />
    <glyph glyph-name="parenleft" unicode="(" horiz-adv-x="361" 
d="M145 282q0 -156 64.5 -264.5t178.5 -164.5l-16 -30q-137 56 -224.5 174.5t-87.5 284.5t87.5 284.5t224.5 174.5l16 -30q-114 -56 -178.5 -164.5t-64.5 -264.5z" />
    <glyph glyph-name="parenright" unicode=")" horiz-adv-x="361" 
d="M301 282q0 -166 -87.5 -284.5t-224.5 -174.5l-16 30q114 56 178.5 164.5t64.5 264.5t-64.5 264.5t-178.5 164.5l16 30q137 -56 224.5 -174.5t87.5 -284.5z" />
    <glyph glyph-name="asterisk" unicode="*" horiz-adv-x="424" 
d="M40 531l26 54l128 -98l9 4l-23 158h64l-23 -158l9 -4l128 98l26 -54l-145 -60v-11l145 -60l-26 -54l-128 98l-9 -4l23 -158h-64l23 158l-9 4l-128 -98l-26 54l145 60v11z" />
    <glyph glyph-name="plus" unicode="+" horiz-adv-x="520" 
d="M475 278h-183v-189h-63v189h-184v57h184v186h63v-186h183v-57z" />
    <glyph glyph-name="comma" unicode="," horiz-adv-x="231" 
d="M187 30q0 -112 -145 -200l-19 23q94 73 106 141l-7 4l-1 -1q-9 -5 -24 -5q-20 0 -33.5 15.5t-13.5 38.5q0 27 18.5 46.5t45.5 19.5q34 0 53.5 -22.5t19.5 -59.5z" />
    <glyph glyph-name="hyphen" unicode="-" horiz-adv-x="366" 
d="M314 198h-262v73h262v-73z" />
    <glyph glyph-name="period" unicode="." horiz-adv-x="231" 
d="M180 48q0 -26 -19 -45t-45 -19q-27 0 -46 19t-19 45t19 45t46 19q26 0 45 -19t19 -45z" />
    <glyph glyph-name="slash" unicode="/" horiz-adv-x="431" 
d="M465 724l-208 -466l-196 -468l-61 18l208 466l197 467z" />
    <glyph glyph-name="zero" unicode="0" horiz-adv-x="572" 
d="M526 306q0 -140 -66.5 -230.5t-177.5 -90.5q-115 0 -176 89t-61 232q0 141 66.5 231.5t177.5 90.5q115 0 176 -89t61 -233zM422 306q0 137 -41.5 207.5t-103.5 70.5q-128 0 -128 -278t145 -278q54 0 91 70.5t37 207.5z" />
    <glyph glyph-name="one" unicode="1" horiz-adv-x="394" 
d="M251 66l109 -31v-35h-312v35l111 31v458l-112 33v31l194 33l10 -8v-547z" />
    <glyph glyph-name="two" unicode="2" horiz-adv-x="523" 
d="M340 427q0 57 -31.5 89.5t-82.5 32.5q-38 0 -67 -18t-69 -62l-31 27q79 132 200 132q83 0 131 -46.5t48 -128.5q0 -80 -54.5 -151t-228.5 -216l4 -9h209l73 95l25 -11l-39 -161h-396l-9 30q127 103 223 207q51 55 73 99t22 91z" />
    <glyph glyph-name="three" unicode="3" horiz-adv-x="493" 
d="M438 173q0 -81 -63 -134.5t-155 -53.5q-79 0 -128.5 27t-49.5 71q0 26 16 43.5t41 17.5q36 0 54.5 -26.5t9.5 -73.5q33 -16 71 -16q49 0 82.5 30t33.5 85q0 128 -206 136v36q101 40 141 76.5t40 82.5q0 38 -26 60t-70 22q-64 0 -140 -68l-28 29q86 111 198 111
q74 0 114 -36.5t40 -90.5t-34.5 -92t-100.5 -70v-10q160 -30 160 -156z" />
    <glyph glyph-name="four" unicode="4" horiz-adv-x="561" 
d="M519 180h-123v-116l104 -30v-34h-297v34l108 30v116h-267l-8 35l291 412l69 -6v-380h123v-61zM313 241v275h-10l-191 -275h201z" />
    <glyph glyph-name="five" unicode="5" horiz-adv-x="503" 
d="M446 200q0 -96 -64.5 -155.5t-157.5 -59.5q-78 0 -127 27.5t-49 70.5q0 26 17 43.5t42 17.5q36 0 53 -27t11 -73q28 -16 63 -16q53 0 88.5 37t35.5 106q0 65 -39.5 101t-101.5 36q-49 0 -104 -23l-26 13l35 314h236l42 51l33 -7l-22 -130h-245l-17 -144l7 -6q39 13 83 13
q92 0 149.5 -50t57.5 -139z" />
    <glyph glyph-name="six" unicode="6" horiz-adv-x="527" 
d="M480 215q0 -99 -61.5 -164.5t-157.5 -65.5q-93 0 -152 58.5t-59 174.5q0 167 123 283q110 104 258 138l9 -35q-111 -47 -173 -104q-66 -60 -101 -137l8 -4q69 47 128 47q81 0 129.5 -57t48.5 -134zM390 179q0 75 -35 119.5t-98 44.5q-54 0 -101 -26q-13 -42 -13 -99
q0 -85 37 -138.5t94 -53.5q52 0 84 41.5t32 111.5z" />
    <glyph glyph-name="seven" unicode="7" horiz-adv-x="482" 
d="M382 527h-243l-55 -78l-32 6l28 188l35 7l23 -38h320l12 -19l-303 -608h-95l146 244z" />
    <glyph glyph-name="eight" unicode="8" horiz-adv-x="526" 
d="M338 326q136 -67 136 -168q0 -76 -60.5 -124.5t-150.5 -48.5q-95 0 -150.5 43.5t-55.5 109.5q0 103 142 165q-124 57 -124 155q0 72 57.5 121t139.5 49q85 0 136 -41t51 -105q0 -97 -121 -156zM302 341q39 37 56 69t17 75q0 45 -29 74t-79 29q-48 0 -78 -29.5t-30 -72.5
q0 -48 29 -77.5t114 -67.5zM231 289q-85 -67 -85 -145q0 -54 35 -87t94 -33q49 0 81.5 31.5t32.5 76.5q0 50 -33.5 83.5t-124.5 73.5z" />
    <glyph glyph-name="nine" unicode="9" horiz-adv-x="527" 
d="M477 395q0 -166 -119 -279q-112 -107 -261 -142l-10 35q106 44 173 103q41 36 61 62t37 66l-8 4q-69 -47 -128 -47q-79 0 -127 58t-48 137q0 104 60.5 170t157.5 66q93 0 152.5 -61t59.5 -172zM384 395q0 90 -36.5 141t-94.5 51q-52 0 -84 -42t-32 -116q0 -80 34 -124.5
t96 -44.5q60 0 104 26q13 42 13 109z" />
    <glyph glyph-name="colon" unicode=":" horiz-adv-x="241" 
d="M185 337q0 -26 -19 -45t-45 -19q-27 0 -46 19t-19 45t19 45t46 19q26 0 45 -19t19 -45zM185 48q0 -26 -19 -45t-45 -19q-27 0 -46 19t-19 45t19 45t46 19q26 0 45 -19t19 -45z" />
    <glyph glyph-name="semicolon" unicode=";" horiz-adv-x="241" 
d="M188 337q0 -26 -19 -45t-45 -19t-45 19t-19 45t19 45t45 19t45 -19t19 -45zM187 30q0 -112 -145 -200l-19 23q94 73 106 141l-7 4l-1 -1q-9 -5 -24 -5q-20 0 -33.5 15.5t-13.5 38.5q0 27 18.5 46.5t45.5 19.5q34 0 53.5 -22.5t19.5 -59.5z" />
    <glyph glyph-name="less" unicode="&#x3c;" horiz-adv-x="520" 
d="M442 142l-15 -58l-359 195v54l359 195l15 -56l-308 -166z" />
    <glyph glyph-name="equal" unicode="=" horiz-adv-x="520" 
d="M464 434v-61h-408v61h408zM464 177h-408v61h408v-61z" />
    <glyph glyph-name="greater" unicode="&#x3e;" horiz-adv-x="520" 
d="M384 306l-307 167l14 55l359 -195v-54l-359 -195l-14 58z" />
    <glyph glyph-name="question" unicode="?" horiz-adv-x="410" 
d="M381 504q0 -50 -26.5 -80.5t-93.5 -64.5q-59 -30 -76.5 -46t-17.5 -38q0 -19 14.5 -30t38.5 -11q33 0 63 7l10 -29q-41 -24 -89 -24q-50 0 -83.5 25.5t-33.5 73.5q0 39 28 68t92 63q51 27 72 49t21 59q0 38 -27 62.5t-71 24.5q-33 0 -55 -13q14 -24 14 -47
q0 -27 -16 -44.5t-42 -17.5q-25 0 -42.5 18.5t-17.5 45.5q0 43 44 70t109 27q80 0 132.5 -42t52.5 -106zM251 49q0 -26 -19 -45t-45 -19t-45 19t-19 45t19 45t45 19t45 -19t19 -45z" />
    <glyph glyph-name="at" unicode="@" horiz-adv-x="924" 
d="M812 313q0 128 -91 214.5t-234 86.5q-154 0 -260 -107.5t-106 -268.5q0 -165 99.5 -266.5t270.5 -101.5q124 0 241 66l18 -22q-118 -92 -282 -92q-180 0 -296.5 107t-116.5 288q0 186 131 310.5t323 124.5q156 0 259.5 -91t103.5 -232q0 -131 -73 -210.5t-164 -79.5
q-51 0 -81 22t-36 59l-12 2q-32 -37 -60.5 -56t-63.5 -19q-48 0 -75 31t-27 84q0 95 79.5 187t159.5 92q39 0 71 -23l44 46l21 -5l-61 -277q-12 -51 1.5 -79t50.5 -28q65 0 115.5 65t50.5 173zM560 359q-26 35 -64 35q-55 0 -97 -64.5t-42 -146.5t58 -82q22 0 43.5 15
t59.5 55z" />
    <glyph glyph-name="A" unicode="A" horiz-adv-x="675" 
d="M594 62l82 -26v-36h-284v34l97 21l-59 163h-235l-55 -156l76 -28v-34h-219v36l83 29l218 578h76zM413 267l-97 270h-8l-95 -270h200z" />
    <glyph glyph-name="B" unicode="B" horiz-adv-x="634" 
d="M589 183q0 -84 -62.5 -133.5t-171.5 -49.5h-327v36l110 22v521l-110 22v36h301q104 0 161 -38.5t57 -104.5q0 -58 -33.5 -93t-107.5 -55v-11q183 -27 183 -152zM237 354h87q57 0 88.5 33.5t31.5 94.5q0 58 -35.5 85.5t-94.5 27.5q-48 0 -77 -6v-235zM476 175
q0 135 -156 135h-83v-261q33 -7 84 -7q155 0 155 133z" />
    <glyph glyph-name="C" unicode="C" horiz-adv-x="679" 
d="M618 170l-19 -132q-94 -53 -211 -53q-156 0 -250.5 89.5t-94.5 242.5q0 147 98 241t234 94q85 0 156 -33l30 36h34l8 -214l-36 -2q-48 87 -94 126.5t-112 39.5q-89 0 -145 -77.5t-56 -200.5q0 -139 67.5 -214.5t183.5 -75.5q45 0 79 15l101 129z" />
    <glyph glyph-name="D" unicode="D" horiz-adv-x="739" 
d="M138 579l-109 22v36h318q160 0 254.5 -90t94.5 -228q0 -137 -100 -228t-255 -91h-312v36l109 22v521zM579 319q0 139 -68 202t-184 63h-87v-531h109q230 0 230 266z" />
    <glyph glyph-name="E" unicode="E" horiz-adv-x="646" 
d="M542 637l24 -169l-24 -7l-58 73q-24 31 -44.5 40.5t-66.5 9.5h-133v-240h56q46 0 66.5 16.5t34.5 67.5l9 33h30v-279h-30l-9 31q-15 52 -35 68.5t-66 16.5h-56v-244h179q44 0 63 8.5t39 37.5l66 97l25 -4l-27 -193h-556v36l109 22v521l-109 22v36h513z" />
    <glyph glyph-name="F" unicode="F" horiz-adv-x="593" 
d="M566 468l-24 -7l-58 73q-25 32 -45.5 41t-68.5 9h-130v-244h58q46 0 65.5 16.5t33.5 68.5l9 33h30v-279h-30l-9 31q-15 52 -34 68t-65 16h-58v-236l115 -22v-36h-326v36l109 22v521l-109 22v36h513z" />
    <glyph glyph-name="G" unicode="G" horiz-adv-x="709" 
d="M596 441l-34 -2q-47 89 -95.5 128t-113.5 39q-83 0 -138 -72t-55 -205q0 -139 61.5 -213t166.5 -74q58 0 121 33v162l-96 21v36h277v-36l-83 -21v-245l-30 -6l-49 50q-84 -51 -175 -51q-134 0 -222 88t-88 235q0 145 95.5 244.5t236.5 99.5q82 0 150 -33l30 36h34z" />
    <glyph glyph-name="H" unicode="H" horiz-adv-x="822" 
d="M582 358v221l-104 22v36h315v-36l-109 -22v-521l109 -22v-36h-315v36l104 22v245h-342v-245l104 -22v-36h-315v36l109 22v521l-109 22v36h315v-36l-104 -22v-221h342z" />
    <glyph glyph-name="I" unicode="I" horiz-adv-x="408" 
d="M255 58l112 -22v-36h-327v36l113 22v521l-113 22v36h327v-36l-112 -22v-521z" />
    <glyph glyph-name="J" unicode="J" horiz-adv-x="516" 
d="M384 232q0 -69 -11 -110.5t-41 -75.5q-57 -64 -163 -64q-72 0 -106.5 27t-34.5 66q0 29 20 47.5t47 18.5q35 0 54 -31t19 -89q60 3 87 45.5t27 132.5v380l-110 22v36h319v-36l-107 -22v-347z" />
    <glyph glyph-name="K" unicode="K" horiz-adv-x="718" 
d="M389 360l235 -295l86 -29v-36h-269v33l68 24l-190 245h-79v-244l97 -22v-36h-308v36l109 22v521l-109 22v36h308v-36l-97 -22v-226h84l198 218l-75 31v35h232v-36l-90 -36z" />
    <glyph glyph-name="L" unicode="L" horiz-adv-x="623" 
d="M590 203l-26 -203h-535v36l109 22v521l-109 22v36h325v-36l-114 -22v-524h154q42 0 61 11t42 44l69 97z" />
    <glyph glyph-name="M" unicode="M" horiz-adv-x="950" 
d="M812 58l109 -22v-36h-319v36l109 22v511h-12l-225 -569h-48l-224 569h-12v-502l89 -31v-36h-235v36l89 31v510l-89 24v36h239l38 -103l147 -387h15l147 387l39 103h252v-36l-109 -22v-521z" />
    <glyph glyph-name="N" unicode="N" horiz-adv-x="765" 
d="M133 67v502l-89 30v38h217l70 -102l243 -351h11v386l-99 31v36h246v-36l-89 -31v-576h-58l-70 102l-312 443h-12v-472l99 -31v-36h-246v36z" />
    <glyph glyph-name="O" unicode="O" horiz-adv-x="714" 
d="M669 319q0 -140 -88 -237t-228 -97q-145 0 -227.5 96t-82.5 238q0 139 88 236t228 97q145 0 227.5 -95.5t82.5 -237.5zM552 319q0 140 -62 215t-145 75q-79 0 -132 -67.5t-53 -222.5q0 -154 60 -222.5t147 -68.5q76 0 130.5 75t54.5 216z" />
    <glyph glyph-name="P" unicode="P" horiz-adv-x="600" 
d="M562 459q0 -88 -61.5 -142.5t-159.5 -54.5q-43 0 -101 9v-213l112 -22v-36h-323v36l109 22v521l-109 22v36h291q114 0 178 -47t64 -131zM452 454q0 69 -39.5 103.5t-106.5 34.5q-36 0 -66 -6v-269q30 -5 69 -5q69 0 106 35.5t37 106.5z" />
    <glyph glyph-name="Q" unicode="Q" horiz-adv-x="714" 
d="M669 319q0 -126 -71 -214.5t-185 -110.5q62 -92 117 -128q49 -33 140 -41l-4 -34h-97q-107 0 -151 32q-26 20 -70 94l-44 75q-123 18 -192 107.5t-69 219.5q0 139 88 236t228 97q145 0 227.5 -95.5t82.5 -237.5zM552 319q0 140 -62 215t-145 75q-79 0 -132 -67.5
t-53 -222.5q0 -154 60 -223t147 -69q76 0 130.5 75.5t54.5 216.5z" />
    <glyph glyph-name="R" unicode="R" horiz-adv-x="666" 
d="M572 474q0 -122 -184 -159v-11q73 -23 114 -102q5 -9 16 -31l16 -32t13 -24.5t14.5 -23.5t13.5 -16q18 -18 38 -26t63 -13v-36h-101q-56 0 -82.5 21.5t-57.5 84.5l-56 115q-20 42 -42 54.5t-67 12.5h-30v-230l104 -22v-36h-315v36l109 22v521l-109 22v36h301
q116 0 179 -43t63 -120zM459 469q0 124 -151 124q-38 0 -68 -6v-251h68q70 0 110.5 33.5t40.5 99.5z" />
    <glyph glyph-name="S" unicode="S" horiz-adv-x="533" 
d="M482 184q0 -93 -64.5 -146t-148.5 -53q-83 0 -146 29l-21 -32h-39l-12 219l38 2q37 -98 82 -139t106 -41q54 0 85.5 32t31.5 84q0 44 -27 74.5t-93 58.5q-13 6 -43 17.5t-47 19.5q-111 55 -111 162q0 83 56.5 132t135.5 49q65 0 114 -28l22 31h37l17 -192l-37 -2
q-42 86 -77.5 119.5t-84.5 33.5q-42 0 -68.5 -27.5t-26.5 -70.5t22.5 -70.5t75.5 -50.5q97 -42 102 -44q62 -30 91.5 -69.5t29.5 -97.5z" />
    <glyph glyph-name="T" unicode="T" horiz-adv-x="673" 
d="M649 449l-26 -6l-53 77q-28 42 -49.5 55t-60.5 13h-67v-530l116 -22v-36h-334v36l116 22v530h-74q-39 0 -60 -13t-50 -55l-53 -77l-25 6l35 188h549z" />
    <glyph glyph-name="U" unicode="U" horiz-adv-x="748" 
d="M574 570l-89 31v36h237v-36l-89 -31v-348q0 -105 -67.5 -172t-184.5 -67q-123 0 -190.5 59.5t-67.5 175.5v361l-99 22v36h312v-36l-109 -22v-353q0 -183 183 -183q78 0 121 51.5t43 137.5v338z" />
    <glyph glyph-name="V" unicode="V" horiz-adv-x="678" 
d="M599 572l-228 -578h-50l-229 581l-93 26v36h301v-36l-98 -21l167 -454l168 446l-76 29v36h222v-36z" />
    <glyph glyph-name="W" unicode="W" horiz-adv-x="1008" 
d="M570 584l157 -447h2l139 437l-81 28v35h224v-35l-86 -28l-199 -580h-43l-168 460h-2l-182 -460h-43l-195 585l-91 23v35h290v-35l-95 -18l136 -446h2l152 393l-18 48l-81 23v35h272v-35z" />
    <glyph glyph-name="X" unicode="X" horiz-adv-x="723" 
d="M587 570l-185 -227l201 -283l89 -25v-35h-295v33l92 18l-141 222l-155 -213l72 -27v-33h-233v35l97 30l194 241l-192 270l-94 25v36h300v-34l-92 -18l133 -209l145 199l-71 28v34h232v-36z" />
    <glyph glyph-name="Y" unicode="Y" horiz-adv-x="658" 
d="M578 570l-190 -288v-224l116 -22v-36h-334v36l116 22v207l-198 313l-91 23v36h295v-36l-91 -18l161 -261l153 251l-88 28v36h237v-36z" />
    <glyph glyph-name="Z" unicode="Z" horiz-adv-x="648" 
d="M600 200l-26 -200h-530l-4 26l418 562h-188q-42 0 -64.5 -13t-46.5 -47l-56 -74l-27 7l24 176h487l4 -26l-418 -561h234q39 0 60 11.5t40 41.5l66 101z" />
    <glyph glyph-name="bracketleft" unicode="[" horiz-adv-x="323" 
d="M345 700h-177v-835h177v-48h-256v931h256v-48z" />
    <glyph glyph-name="backslash" unicode="\" horiz-adv-x="431" 
d="M27 741l196 -467l208 -465l-60 -19l-197 468l-208 466z" />
    <glyph glyph-name="bracketright" unicode="]" horiz-adv-x="323" 
d="M155 700h-177v48h256v-931h-256v48h177v835z" />
    <glyph glyph-name="asciicircum" unicode="^" horiz-adv-x="299" 
d="M150 622l-106 -102l-27 21l119 181h35l112 -181l-27 -21z" />
    <glyph glyph-name="underscore" unicode="_" horiz-adv-x="440" 
d="M442 52v-52h-444v52h444z" />
    <glyph glyph-name="grave" unicode="`" horiz-adv-x="238" 
d="M180 542l-25 -16q-109 105 -126 132q-27 45 11 71q16 11 35.5 5.5t32.5 -25.5q21 -32 72 -167z" />
    <glyph glyph-name="a" unicode="a" horiz-adv-x="476" 
d="M393 331v-252q0 -23 17.5 -32t65.5 -6l3 -22q-15 -11 -47.5 -20.5t-58.5 -9.5q-29 0 -44 16.5t-17 55.5l-9 2q-74 -74 -146 -74q-50 0 -79 29.5t-29 76.5q0 141 259 164v48q0 59 -23.5 81.5t-77.5 22.5q-37 0 -69 -16q33 -24 33 -52q0 -23 -15 -38t-38 -15q-24 0 -39 15
t-15 39q0 51 63 85t139 34q127 0 127 -132zM308 98v124q-176 -7 -176 -100q0 -67 69 -67q46 0 107 43z" />
    <glyph glyph-name="b" unicode="b" horiz-adv-x="535" 
d="M494 237q0 -102 -70 -177.5t-180 -75.5q-39 0 -89.5 11t-79.5 26v615l-78 37v29l156 39l9 -7v-339l9 -2q39 36 71 53.5t71 17.5q76 0 128.5 -62t52.5 -165zM403 213q0 86 -37.5 134t-102.5 48q-45 0 -101 -43v-273q58 -53 114 -53q55 0 91 45t36 142z" />
    <glyph glyph-name="c" unicode="c" horiz-adv-x="470" 
d="M428 365q0 -29 -16 -46.5t-41 -17.5q-28 0 -44 18t-16 43q0 32 18 55q-21 6 -42 6q-67 0 -113 -51.5t-46 -141.5q0 -82 46.5 -130t118.5 -48q58 0 123 41l20 -23q-75 -86 -177 -86q-99 0 -160 62.5t-61 163.5q0 110 70.5 182t178.5 72q64 0 102.5 -29t38.5 -70z" />
    <glyph glyph-name="d" unicode="d" horiz-adv-x="558" 
d="M460 83l71 -35v-28l-146 -36l-10 8l7 75l-9 2l-1 -1q-42 -43 -75 -63t-77 -20q-75 0 -127 61.5t-52 161.5q0 107 69.5 182t178.5 75q42 0 84 -11v182l-78 37v29l156 39l9 -7v-651zM132 234q0 -84 36.5 -132.5t98.5 -48.5q46 0 106 49v265q-58 56 -115 56
q-55 0 -90.5 -45.5t-35.5 -143.5z" />
    <glyph glyph-name="e" unicode="e" horiz-adv-x="483" 
d="M447 240h-316q0 -89 41.5 -137.5t121.5 -48.5q55 0 129 48l18 -28q-95 -90 -183 -90q-97 0 -158.5 64.5t-61.5 168.5q0 105 64.5 176t157.5 71q91 0 139 -61.5t48 -162.5zM132 277l217 7q-3 68 -29.5 104.5t-71.5 36.5q-47 0 -79 -40t-37 -108z" />
    <glyph glyph-name="f" unicode="f" horiz-adv-x="328" 
d="M329 387h-124v-333l86 -22v-32h-244v32l71 22v333h-90v32l90 26v48q0 131 79 199q55 48 124 48q40 0 62 -17t22 -42q0 -24 -14 -37.5t-37 -13.5q-45 0 -85 62q-64 -37 -64 -167v-83h124v-55z" />
    <glyph glyph-name="g" unicode="g" horiz-adv-x="497" 
d="M410 309q0 -72 -51.5 -114.5t-129.5 -42.5q-34 0 -60 10q-32 -23 -32 -47q0 -23 16.5 -32t57.5 -9l108 1q153 0 153 -109q0 -70 -70 -123t-186 -53q-97 0 -148.5 31t-51.5 78q0 70 102 111l-1 9q-65 21 -65 65q0 46 82 85v8q-83 45 -83 131q0 70 52.5 113t130.5 43
q61 0 114 -34q74 46 117 46q26 0 42 -14.5t16 -36.5q0 -24 -13.5 -37.5t-33.5 -13.5t-32.5 13.5t-14.5 34.5l-49 -4l-12 -15q42 -37 42 -94zM322 308q0 56 -23.5 88t-67.5 32q-42 0 -67 -30.5t-25 -90.5q0 -121 96 -121q39 0 63 34t24 88zM398 -66q0 65 -101 66l-144 2
q-52 -32 -52 -81q0 -39 42 -62.5t108 -23.5q63 0 105 29t42 70z" />
    <glyph glyph-name="h" unicode="h" horiz-adv-x="576" 
d="M403 283q0 111 -89 111q-59 0 -126 -46v-294l67 -22v-32h-225v32l71 22v582l-78 37v29l156 39l9 -7v-349l4 -2q87 81 169 81q64 0 96.5 -38t32.5 -101v-271l71 -22v-32h-226v32l68 22v229z" />
    <glyph glyph-name="i" unicode="i" horiz-adv-x="289" 
d="M83 641q0 27 19.5 48t48.5 21q27 0 45 -18t18 -45q0 -28 -19.5 -49t-49.5 -21q-27 0 -44.5 18.5t-17.5 45.5zM108 365l-70 36v28l153 36l4 -3v-408l67 -22v-32h-225v32l71 22v311z" />
    <glyph glyph-name="j" unicode="j" horiz-adv-x="285" 
d="M87 641q0 27 19.5 48t48.5 21q27 0 45 -18t18 -45q0 -28 -19.5 -49t-49.5 -21q-27 0 -44.5 18t-17.5 46zM199 11q0 -61 -11 -98.5t-38 -68.5q-45 -54 -117 -54q-30 0 -49 15.5t-19 36.5q0 22 13 35.5t32 13.5q48 0 61 -58q24 14 32.5 41t8.5 84v407l-70 36v28l153 36
l4 -3v-451z" />
    <glyph glyph-name="k" unicode="k" horiz-adv-x="527" 
d="M288 259l160 -202l67 -25v-32h-204v30l44 21l-119 160h-48v-157l60 -22v-32h-218v32l71 22v582l-78 37v29l156 39l9 -7v-479h48l117 131l-55 35v27h203v-32l-81 -30z" />
    <glyph glyph-name="l" unicode="l" horiz-adv-x="287" 
d="M193 54l67 -22v-32h-225v32l71 22v582l-78 37v29l156 39l9 -7v-680z" />
    <glyph glyph-name="m" unicode="m" horiz-adv-x="840" 
d="M668 291q0 103 -79 103q-46 0 -118 -53v-287l69 -22v-32h-221v32l65 22v237q0 103 -81 103q-47 0 -113 -46v-294l65 -22v-32h-223v32l71 22v311l-70 36v28l147 36l9 -8l-7 -75l9 -2q46 44 82 63.5t75 19.5q46 0 74 -24.5t40 -62.5l8 -2q87 89 163 89q59 0 90 -35.5
t31 -102.5v-271l72 -22v-32h-224v32l66 22v237z" />
    <glyph glyph-name="n" unicode="n" horiz-adv-x="566" 
d="M480 325v-271l71 -22v-32h-226v32l68 22v229q0 111 -86 111q-50 0 -117 -46v-294l67 -22v-32h-225v32l71 22v311l-70 36v28l147 36l9 -8l-7 -75l9 -2q90 84 163 84q62 0 94 -38.5t32 -100.5z" />
    <glyph glyph-name="o" unicode="o" horiz-adv-x="527" 
d="M489 227q0 -101 -63.5 -172t-168.5 -71q-102 0 -160.5 67t-58.5 173q0 100 64 170t169 70q104 0 161 -65.5t57 -171.5zM390 227q0 98 -35 145t-95 47q-55 0 -89 -48.5t-34 -149.5q0 -97 36.5 -144.5t93.5 -47.5q123 0 123 198z" />
    <glyph glyph-name="p" unicode="p" horiz-adv-x="558" 
d="M517 240q0 -103 -68 -179.5t-177 -76.5q-43 0 -87 11v-145l86 -28v-32h-244v32l71 28v515l-70 36v28l147 36l9 -8l-7 -75l9 -2q41 44 74 64t75 20q77 0 129.5 -62.5t52.5 -161.5zM426 216q0 84 -37 131.5t-98 47.5q-46 0 -106 -49v-264q58 -56 115 -56q54 0 90 45.5
t36 144.5z" />
    <glyph glyph-name="q" unicode="q" horiz-adv-x="535" 
d="M531 -210h-244v32l86 28v202l-9 3l-1 -1q-38 -36 -70 -53t-69 -17q-77 0 -130 61.5t-53 165.5q0 103 70.5 178t177.5 75q50 0 106 -20l43 41l22 -3v-632l71 -28v-32zM271 54q50 0 102 43v271q-57 54 -113 54q-55 0 -91.5 -45t-36.5 -142q0 -85 37.5 -133t101.5 -48z" />
    <glyph glyph-name="r" unicode="r" horiz-adv-x="407" 
d="M392 396q0 -28 -16.5 -45.5t-38.5 -17.5q-28 0 -41.5 18t-11.5 44q-52 -2 -94 -77v-264l74 -22v-32h-232v32l71 22v311l-70 36v28l147 36l9 -8l-8 -87l10 -3q64 97 129 97q33 0 52.5 -19t19.5 -49z" />
    <glyph glyph-name="s" unicode="s" horiz-adv-x="412" 
d="M374 135q0 -67 -50 -107t-129 -40q-80 0 -151 27v126l34 3q22 -63 53 -89t78 -26q37 0 61 19.5t24 51.5q0 30 -22 49.5t-83 42.5q-72 28 -105 57.5t-33 78.5q0 58 45.5 97.5t117.5 39.5q77 0 132 -21l3 -111l-31 -6q-26 54 -53.5 75.5t-65.5 21.5q-33 0 -53 -17.5
t-20 -43.5q0 -27 21 -45t76 -38q86 -33 118.5 -63t32.5 -82z" />
    <glyph glyph-name="t" unicode="t" horiz-adv-x="339" 
d="M332 38q-75 -46 -137 -46q-103 0 -103 120v279h-74v33l82 39l42 119h36v-129h151v-62h-151v-246q0 -57 26 -74q16 -11 64 -11q26 0 63 6z" />
    <glyph glyph-name="u" unicode="u" horiz-adv-x="561" 
d="M464 78l71 -30v-29l-148 -35l-9 7l7 75l-9 2q-90 -84 -163 -84q-62 0 -94 40t-32 101v247l-70 34v23l148 36l9 -8v-290q0 -113 86 -113q50 0 117 46v272l-71 34v23l149 36l9 -8v-379z" />
    <glyph glyph-name="v" unicode="v" horiz-adv-x="499" 
d="M165 396l104 -289h9l47 127l50 155l-67 28v31h196v-32l-77 -35l-153 -392h-46l-163 402l-66 25v32h228v-31z" />
    <glyph glyph-name="w" unicode="w" horiz-adv-x="786" 
d="M452 398l94 -290h5l101 282l-59 29v29h189v-32l-78 -31l-161 -396h-40l-101 291l-135 -291h-41l-153 406l-66 21v32h226v-29l-67 -21l105 -298h5l105 238l-21 60l-58 21v29h217v-29z" />
    <glyph glyph-name="x" unicode="x" horiz-adv-x="540" 
d="M279 267l94 128l-51 27v26h184v-32l-83 -35l-120 -143l144 -181l71 -25v-32h-232v26l64 21l-97 138l-95 -132l50 -27v-26h-183v32l83 34l121 148l-139 177l-72 25v32h232v-26l-64 -21z" />
    <glyph glyph-name="y" unicode="y" horiz-adv-x="492" 
d="M427 381l-189 -466q-27 -67 -59 -96t-76 -29q-35 0 -54 17t-19 42q0 21 15.5 35.5t37.5 14.5q38 0 71 -48q24 24 48 79l25 63l-163 398l-65 25v32h226v-31l-60 -21l105 -295h8l97 288l-69 28v31h191v-32z" />
    <glyph glyph-name="z" unicode="z" horiz-adv-x="492" 
d="M452 425l-299 -381h180l90 96l27 -6l-16 -134h-396l-3 23l298 381h-166l-82 -96l-26 6l12 134h378z" />
    <glyph glyph-name="braceleft" unicode="{" horiz-adv-x="388" 
d="M242 454q0 -43 -8 -72.5t-27 -47t-41.5 -27t-59.5 -17.5v-10q37 -8 59.5 -17.5t41.5 -27t27 -47t8 -72.5v-83q0 -88 31 -121t122 -47v-36q-131 5 -184 50t-53 163v86q0 68 -29 96.5t-103 37.5v46q74 9 103 37.5t29 96.5v86q0 118 53 163t184 50v-36q-91 -14 -122 -47
t-31 -122v-82z" />
    <glyph glyph-name="bar" unicode="|" horiz-adv-x="294" 
d="M179 -241h-64l6 471l-6 471h64l-6 -471z" />
    <glyph glyph-name="braceright" unicode="}" horiz-adv-x="388" 
d="M230 442q0 -68 29 -96.5t103 -37.5v-46q-74 -9 -103 -37.5t-29 -96.5v-86q0 -118 -53 -163t-184 -50v36q91 14 122 47t31 122v82q0 43 8 72.5t27 47t41.5 27t59.5 17.5v10q-37 8 -59.5 17.5t-41.5 27t-27 47t-8 72.5v83q0 88 -31 121t-122 47v36q131 -5 184 -50t53 -163
v-86z" />
    <glyph glyph-name="asciitilde" unicode="~" horiz-adv-x="371" 
d="M122 378q27 0 75.5 -24t62.5 -24t23.5 13t24.5 48l34 -8q-12 -66 -33 -95.5t-58 -29.5q-27 0 -76 24t-63 24t-23.5 -13t-24.5 -48l-34 8q12 66 33 95.5t59 29.5z" />
    <glyph glyph-name="nbspace" unicode="&#xa0;" horiz-adv-x="110" 
 />
    <glyph glyph-name="exclamdown" unicode="&#xa1;" horiz-adv-x="278" 
d="M203 337q0 -26 -19 -45t-45 -19t-45 19t-19 45t19 45t45 19t45 -19t19 -45zM124 198h28q45 -358 45 -397q0 -32 -16.5 -49.5t-42.5 -17.5q-27 0 -43 17.5t-16 49.5q0 39 45 397z" />
    <glyph glyph-name="cent" unicode="&#xa2;" horiz-adv-x="480" 
d="M257 51q20 -2 32 -2q53 0 124 46l21 -27q-80 -83 -181 -82l-8 -99l-42 4l10 99q-81 15 -126.5 74t-45.5 142q0 89 59.5 158.5t149.5 82.5l6 92l42 -4l-8 -85q65 -1 110 -31.5t45 -68.5q0 -23 -13 -37.5t-35 -14.5q-28 0 -44.5 26.5t-11.5 71.5q-20 15 -54 17l-18 -203z
M126 224q0 -59 25 -100.5t68 -60.5l14 150l14 196q-57 -14 -89 -66.5t-32 -118.5z" />
    <glyph glyph-name="sterling" unicode="&#xa3;" horiz-adv-x="558" 
d="M424 332v-46h-144q1 -8 1 -24q0 -53 -20.5 -87.5t-70.5 -75.5l6 -12q37 0 100.5 -8t93.5 -8q38 0 57 23.5t33 85.5l40 -1q-8 -89 -42.5 -141.5t-95.5 -52.5q-68 0 -214 71q-17 -33 -41.5 -52t-48.5 -19q-23 0 -37 13t-14 32q0 27 29.5 46.5t87.5 22.5q48 59 48 129
q0 27 -12 58h-129v46h109q-20 47 -20 87q0 87 70 148t162 61q66 0 95 -23t29 -51q0 -26 -16 -43t-40 -17q-62 0 -86 89q-56 -8 -87.5 -44t-31.5 -86q0 -18 3.5 -36t7.5 -29t11 -29.5t10 -26.5h157z" />
    <glyph glyph-name="currency" unicode="&#xa4;" horiz-adv-x="596" 
d="M115 347h-87v44h96q30 105 110.5 171t177.5 66q67 0 102 -22t35 -55q0 -24 -16 -40.5t-41 -16.5q-32 0 -55 24t-31 67h-3q-69 -5 -120 -56.5t-69 -137.5h273v-44h-279q-1 -11 -1 -37q0 -30 3 -57h277v-44h-269q21 -78 72.5 -118.5t123.5 -40.5q62 0 122 31l18 -27
q-72 -69 -173 -69q-105 0 -174.5 58.5t-88.5 165.5h-90v44h84q-1 12 -1 37q0 33 4 57z" />
    <glyph glyph-name="yen" unicode="&#xa5;" horiz-adv-x="654" 
d="M113 313h154l-160 238l-82 26v35h277v-35l-87 -18l138 -224l142 218l-73 24v35h206v-35l-78 -30l-166 -234h155v-38h-169v-85h169v-39h-169v-95l103 -21v-35h-294v35l102 21v95h-168v39h168v85h-168v38z" />
    <glyph glyph-name="brokenbar" unicode="&#xa6;" horiz-adv-x="294" 
d="M179 299h-64l6 201l-6 201h64l-6 -201zM179 -241h-64l6 201l-6 201h64l-6 -201z" />
    <glyph glyph-name="section" unicode="&#xa7;" horiz-adv-x="525" 
d="M463 177q0 -118 -72 -196.5t-176 -78.5q-66 0 -104.5 24t-38.5 62q0 24 17.5 41t40.5 17q27 0 43.5 -15.5t16.5 -38.5q0 -18 -7 -35q21 -12 55 -12q45 0 81.5 27.5t56.5 74.5q-156 46 -235 136t-79 213q0 118 72 196.5t176 78.5q66 0 104.5 -24t38.5 -62q0 -24 -17.5 -41
t-40.5 -17q-27 0 -43.5 15.5t-16.5 38.5q0 18 7 35q-21 12 -55 12q-45 0 -81.5 -27.5t-56.5 -74.5q156 -46 235 -136t79 -213zM130 432q0 -101 65.5 -193t192.5 -157q7 25 7 59q0 101 -65.5 193t-192.5 157q-7 -25 -7 -59z" />
    <glyph glyph-name="dieresis" unicode="&#xa8;" horiz-adv-x="322" 
d="M252 543q-25 0 -40.5 16t-15.5 41t18 43.5t44 18.5q25 0 41 -16t16 -41t-18 -43.5t-45 -18.5zM64 543q-25 0 -41 16t-16 41t18 43.5t45 18.5q25 0 40.5 -16t15.5 -41t-18 -43.5t-44 -18.5z" />
    <glyph glyph-name="copyright" unicode="&#xa9;" horiz-adv-x="788" 
d="M745 320q0 -146 -103 -248.5t-248 -102.5t-248 102.5t-103 248.5q0 145 103 247t248 102t248 -102t103 -247zM710 320q0 133 -91.5 225.5t-224.5 92.5t-225 -92.5t-92 -225.5q0 -135 92 -228t225 -93t224.5 93t91.5 228zM292 325q0 -77 35.5 -117t93.5 -40q21 0 32 5
l61 81l22 -6l-13 -91q-55 -28 -120 -28q-87 0 -140 50.5t-53 135.5q0 79 56 135.5t139 56.5q46 0 80 -17l14 23h22l8 -138l-25 -3q-25 53 -51.5 76t-63.5 23q-40 0 -68.5 -36t-28.5 -110z" />
    <glyph glyph-name="ordfeminine" unicode="&#xaa;" horiz-adv-x="410" 
d="M71 566q0 36 48 61t105 25q98 0 98 -96v-172q0 -31 57 -28l3 -20q-38 -20 -75 -20q-44 0 -48 50h-7q-60 -50 -112 -50q-39 0 -61.5 21.5t-22.5 56.5q0 102 195 113v37q0 35 -16.5 50.5t-55.5 15.5q-24 0 -44 -7q16 -15 16 -38q0 -15 -11.5 -26.5t-28.5 -11.5
q-19 0 -29.5 11t-10.5 28zM127 410q0 -46 47 -46q29 0 77 27v87q-124 -6 -124 -68z" />
    <glyph glyph-name="guillemotleft" unicode="&#xab;" 
d="M341 224l119 -180l-30 -20l-193 190v20l193 191l30 -22zM136 224l119 -180l-30 -20l-194 190v20l194 191l30 -22z" />
    <glyph glyph-name="logicalnot" unicode="&#xac;" horiz-adv-x="520" 
d="M466 275h-412v62h412v-62z" />
    <glyph glyph-name="registered" unicode="&#xae;" horiz-adv-x="418" 
d="M209 288q-80 0 -134 53.5t-54 133.5t54 134t134 54t134 -54t54 -134t-54 -133.5t-134 -53.5zM209 309q71 0 118 47.5t47 118.5t-47 119t-118 48t-118 -48t-47 -119t47 -118.5t118 -47.5zM292 526q0 -41 -58 -49v-7q35 -5 43 -27q10 -26 20 -36q6 -7 26 -10v-14h-42
q-17 0 -24 6.5t-15 26.5l-13 30q-8 19 -30 19h-12v-60l31 -8v-14h-105v14l32 8v148l-32 7v15h109q33 0 51.5 -13.5t18.5 -35.5zM248 522q0 35 -40 35h-21v-74h24q16 0 26.5 10.5t10.5 28.5z" />
    <glyph glyph-name="macron" unicode="&#xaf;" horiz-adv-x="321" 
d="M291 621v-67h-261v67h261z" />
    <glyph glyph-name="degree" unicode="&#xb0;" horiz-adv-x="394" 
d="M351 503q0 -59 -43.5 -105t-113.5 -46q-69 0 -110 44.5t-41 105.5q0 59 43.5 104.5t114.5 45.5q69 0 109.5 -44t40.5 -105zM282 503q0 50 -23.5 81.5t-62.5 31.5q-37 0 -60.5 -32t-23.5 -83q0 -50 24.5 -81.5t61.5 -31.5q39 0 61.5 31.5t22.5 83.5z" />
    <glyph glyph-name="plusminus" unicode="&#xb1;" 
d="M25 -200v1000h450v-1000h-450z" />
    <glyph glyph-name="twosuperior" unicode="&#xb2;" horiz-adv-x="390" 
d="M101 251l4 -12h173l50 79l23 -6l-22 -139h-287l-12 65q90 72 144 131q43 46 59.5 75t16.5 61q0 33 -21 53.5t-54 20.5q-68 0 -99 -91l-33 9q10 69 52 109t104 40t98 -36.5t36 -91.5q0 -60 -50 -117.5t-182 -149.5z" />
    <glyph glyph-name="threesuperior" unicode="&#xb3;" horiz-adv-x="390" 
d="M117 375v41q78 25 105 49t27 61q0 24 -19 41t-51 17q-64 0 -106 -72l-28 17q20 53 64 85t100 32t88.5 -28t32.5 -74q0 -81 -103 -112v-13q122 -21 122 -116q0 -63 -48.5 -104t-121.5 -41q-63 0 -104.5 24t-41.5 59q0 22 13.5 36t33.5 14q29 0 44 -21t10 -59
q22 -14 53 -14q37 0 60 20.5t23 58.5q0 89 -153 99z" />
    <glyph glyph-name="acute" unicode="&#xb4;" horiz-adv-x="238" 
d="M185 729q38 -26 11 -71q-15 -24 -125 -132l-25 16q48 132 71 167q13 20 32.5 25.5t35.5 -5.5z" />
    <glyph glyph-name="mu" unicode="&#xb5;" horiz-adv-x="520" 
d="M300 305l140 -144l-42 -41l-138 143l-138 -143l-42 41l140 144l-140 144l42 41l138 -143l138 143l42 -41z" />
    <glyph glyph-name="paragraph" unicode="&#xb6;" horiz-adv-x="627" 
d="M305 200q-117 4 -186.5 55t-69.5 153q0 97 71 153t190 56h294v-33l-107 -23v-661h-54v666h-84v-666h-54v300zM305 249v317q-74 0 -114 -40t-40 -112q0 -73 38.5 -115.5t115.5 -49.5z" />
    <glyph glyph-name="periodcentered" unicode="&#xb7;" horiz-adv-x="231" 
d="M180 318q0 -26 -19 -45t-45 -19q-27 0 -46 19t-19 45t19 45t46 19q26 0 45 -19t19 -45z" />
    <glyph glyph-name="cedilla" unicode="&#xb8;" horiz-adv-x="282" 
d="M175 -165q0 -45 -33.5 -73.5t-82.5 -28.5q-36 0 -58 14t-22 32q0 34 32 34q14 0 23 -9.5t9 -22.5q0 -10 -4 -17q9 -3 23 -3q22 0 38.5 16.5t16.5 42.5q0 27 -18 42.5t-49 15.5q-7 0 -23 -4l-19 21l186 156l18 -26l-119 -99q34 -7 58 -30t24 -61z" />
    <glyph glyph-name="onesuperior" unicode="&#xb9;" horiz-adv-x="390" 
d="M250 230l102 -33v-24h-290v24l105 33v343l-102 30v23l172 24l13 -9v-411z" />
    <glyph glyph-name="ordmasculine" unicode="&#xba;" horiz-adv-x="420" 
d="M376 485q0 -68 -47 -118.5t-124 -50.5q-76 0 -119 48t-43 120q0 67 47.5 117.5t124.5 50.5t119 -47.5t42 -119.5zM298 485q0 63 -24 96.5t-66 33.5q-39 0 -62 -34.5t-23 -97.5q0 -62 25 -96.5t65 -34.5t62.5 34.5t22.5 98.5z" />
    <glyph glyph-name="guillemotright" unicode="&#xbb;" 
d="M470 214l-196 -191l-29 21l121 180l-121 180l29 20l196 -190v-20zM265 214l-196 -191l-30 21l121 180l-121 180l30 20l196 -190v-20z" />
    <glyph glyph-name="onequarter" unicode="&#xbc;" horiz-adv-x="1040" 
d="M250 230l102 -33v-24h-290v24l105 33v343l-102 30v23l172 24l13 -9v-411zM817 639l-260 -376l-253 -380l-43 31l260 376l253 380zM629 109l196 285l87 -5v-272h71v-58h-71v-88l65 -24v-24h-224v25l82 24v89h-191zM838 113v213h-17l-133 -213h150z" />
    <glyph glyph-name="onehalf" unicode="&#xbd;" horiz-adv-x="1040" 
d="M250 230l102 -33v-24h-290v24l105 33v343l-102 30v23l172 24l13 -9v-411zM812 639l-260 -376l-253 -380l-43 31l260 376l253 380zM741 1l4 -12h173l50 79l23 -6l-22 -139h-287l-12 65q90 72 144 131q43 46 59.5 75t16.5 61q0 33 -21 53.5t-54 20.5q-68 0 -99 -91l-33 9
q10 69 52 109t104 40t98 -36.5t36 -91.5q0 -60 -50 -117.5t-182 -149.5z" />
    <glyph glyph-name="threequarters" unicode="&#xbe;" horiz-adv-x="1040" 
d="M147 375v41q78 25 105 49t27 61q0 24 -19 41t-51 17q-64 0 -106 -72l-28 17q20 53 64 85t100 32t88.5 -28t32.5 -74q0 -81 -103 -112v-13q122 -21 122 -116q0 -63 -48.5 -104t-121.5 -41q-63 0 -104.5 24t-41.5 59q0 22 13.5 36t33.5 14q29 0 44 -21t10 -59
q22 -14 53 -14q37 0 60 20.5t23 58.5q0 89 -153 99zM822 639l-260 -376l-253 -380l-43 31l260 376l253 380zM629 109l196 285l87 -5v-272h71v-58h-71v-88l65 -24v-24h-224v25l82 24v89h-191zM838 113v213h-17l-133 -213h150z" />
    <glyph glyph-name="questiondown" unicode="&#xbf;" horiz-adv-x="410" 
d="M287 337q0 -26 -19 -45t-45 -19t-45 19t-19 45t19 45t45 19t45 -19t19 -45zM367 -169q0 -43 -44 -70t-109 -27q-80 0 -132.5 42t-52.5 106q0 50 26.5 80.5t93.5 64.5q59 30 76.5 46t17.5 38q0 19 -14.5 30t-38.5 11q-33 0 -63 -7l-10 29q41 24 89 24q50 0 83.5 -25.5
t33.5 -73.5q0 -39 -28 -68t-92 -63q-51 -27 -72 -49t-21 -59q0 -38 27 -62.5t71 -24.5q33 0 55 13q-14 24 -14 47q0 27 16 44.5t42 17.5q25 0 42.5 -18.5t17.5 -45.5z" />
    <glyph glyph-name="Agrave" unicode="&#xc0;" horiz-adv-x="675" 
d="M363 728l-25 -16q-109 105 -126 132q-27 45 11 71q16 11 35.5 5.5t32.5 -25.5q21 -32 72 -167zM594 62l82 -26v-36h-284v34l97 21l-59 163h-235l-55 -156l76 -28v-34h-219v36l83 29l218 578h76zM413 267l-97 270h-8l-95 -270h200z" />
    <glyph glyph-name="Aacute" unicode="&#xc1;" horiz-adv-x="675" 
d="M428 915q38 -26 11 -71q-15 -24 -125 -132l-25 16q48 132 71 167q13 20 32.5 25.5t35.5 -5.5zM594 62l82 -26v-36h-284v34l97 21l-59 163h-235l-55 -156l76 -28v-34h-219v36l83 29l218 578h76zM413 267l-97 270h-8l-95 -270h200z" />
    <glyph glyph-name="Acircumflex" unicode="&#xc2;" horiz-adv-x="675" 
d="M335 803l-106 -107l-27 21l119 181h35l112 -181l-27 -21zM594 62l82 -26v-36h-284v34l97 21l-59 163h-235l-55 -156l76 -28v-34h-219v36l83 29l218 578h76zM413 267l-97 270h-8l-95 -270h200z" />
    <glyph glyph-name="Atilde" unicode="&#xc3;" horiz-adv-x="675" 
d="M183 725q12 65 33.5 95t58.5 30q27 0 76 -24t63 -24t23.5 13t23.5 47l35 -8q-12 -65 -33.5 -95t-58.5 -30q-27 0 -76 24t-63 24t-23.5 -13t-23.5 -47zM594 62l82 -26v-36h-284v34l97 21l-59 163h-235l-55 -156l76 -28v-34h-219v36l83 29l218 578h76zM413 267l-97 270h-8
l-95 -270h200z" />
    <glyph glyph-name="Adieresis" unicode="&#xc4;" horiz-adv-x="675" 
d="M433 729q-25 0 -40.5 16t-15.5 41t18 43.5t44 18.5q25 0 41 -16t16 -41t-18 -43.5t-45 -18.5zM245 729q-25 0 -41 16t-16 41t18 43.5t45 18.5q25 0 40.5 -16t15.5 -41t-18 -43.5t-44 -18.5zM594 62l82 -26v-36h-284v34l97 21l-59 163h-235l-55 -156l76 -28v-34h-219v36
l83 29l218 578h76zM413 267l-97 270h-8l-95 -270h200z" />
    <glyph glyph-name="Aring" unicode="&#xc5;" horiz-adv-x="675" 
d="M594 62l82 -26v-36h-284v34l97 21l-59 163h-235l-55 -156l76 -28v-34h-219v36l83 29l212 562q-28 10 -44 35.5t-16 57.5q0 40 30 71t76 31t74 -29t28 -73q0 -27 -16.5 -52.5t-43.5 -38.5zM276 719q0 -35 18 -55t42 -20q25 0 42 20t17 56t-17.5 56t-43.5 20
q-24 0 -41 -20.5t-17 -56.5zM308 537l-95 -270h200l-97 270h-8z" />
    <glyph glyph-name="AE" unicode="&#xc6;" horiz-adv-x="970" 
d="M233 246l-111 -186l81 -24v-36h-225v36l81 27l310 514l-103 25v35h600l24 -169l-24 -7l-58 73q-24 31 -44.5 40.5t-66.5 9.5h-133v-240h56q46 0 66.5 16.5t34.5 67.5l9 33h30v-279h-30l-9 31q-15 52 -35 68.5t-66 16.5h-56v-244h179q44 0 63 8.5t39 37.5l66 97l25 -4
l-27 -193h-556v36l109 22v188h-229zM462 295v291h-26l-174 -291h200z" />
    <glyph glyph-name="Ccedilla" unicode="&#xc7;" horiz-adv-x="679" 
d="M160 327q0 -139 67.5 -214.5t183.5 -75.5q45 0 79 15l101 129l27 -11l-19 -132q-81 -46 -170 -51l-72 -61q34 -7 57.5 -30t23.5 -61q0 -45 -33.5 -73.5t-82.5 -28.5q-36 0 -58 14t-22 32q0 34 32 34q14 0 23 -9.5t9 -22.5q0 -10 -4 -17q10 -3 23 -3q22 0 38.5 16.5
t16.5 42.5q0 27 -18 42.5t-49 15.5q-7 0 -23 -4l-19 21l108 90q-152 3 -244 92.5t-92 239.5q0 147 98 241t234 94q85 0 156 -33l30 36h34l8 -214l-36 -2q-48 87 -94 126.5t-112 39.5q-89 0 -145 -77.5t-56 -200.5z" />
    <glyph glyph-name="Egrave" unicode="&#xc8;" horiz-adv-x="646" 
d="M375 723l-25 -16q-109 105 -126 132q-27 45 11 71q16 11 35.5 5.5t32.5 -25.5q21 -32 72 -167zM542 637l24 -169l-24 -7l-58 73q-24 31 -44.5 40.5t-66.5 9.5h-133v-240h56q46 0 66.5 16.5t34.5 67.5l9 33h30v-279h-30l-9 31q-15 52 -35 68.5t-66 16.5h-56v-244h179
q44 0 63 8.5t39 37.5l66 97l25 -4l-27 -193h-556v36l109 22v521l-109 22v36h513z" />
    <glyph glyph-name="Eacute" unicode="&#xc9;" horiz-adv-x="646" 
d="M404 910q38 -26 11 -71q-15 -24 -125 -132l-25 16q48 132 71 167q13 20 32.5 25.5t35.5 -5.5zM542 637l24 -169l-24 -7l-58 73q-24 31 -44.5 40.5t-66.5 9.5h-133v-240h56q46 0 66.5 16.5t34.5 67.5l9 33h30v-279h-30l-9 31q-15 52 -35 68.5t-66 16.5h-56v-244h179
q44 0 63 8.5t39 37.5l66 97l25 -4l-27 -193h-556v36l109 22v521l-109 22v36h513z" />
    <glyph glyph-name="Ecircumflex" unicode="&#xca;" horiz-adv-x="646" 
d="M323 806l-106 -107l-27 21l119 181h35l112 -181l-27 -21zM542 637l24 -169l-24 -7l-58 73q-24 31 -44.5 40.5t-66.5 9.5h-133v-240h56q46 0 66.5 16.5t34.5 67.5l9 33h30v-279h-30l-9 31q-15 52 -35 68.5t-66 16.5h-56v-244h179q44 0 63 8.5t39 37.5l66 97l25 -4
l-27 -193h-556v36l109 22v521l-109 22v36h513z" />
    <glyph glyph-name="Edieresis" unicode="&#xcb;" horiz-adv-x="646" 
d="M411 724q-25 0 -40.5 16t-15.5 41t18 43.5t44 18.5q25 0 41 -16t16 -41t-18 -43.5t-45 -18.5zM223 724q-25 0 -41 16t-16 41t18 43.5t45 18.5q25 0 40.5 -16t15.5 -41t-18 -43.5t-44 -18.5zM542 637l24 -169l-24 -7l-58 73q-24 31 -44.5 40.5t-66.5 9.5h-133v-240h56
q46 0 66.5 16.5t34.5 67.5l9 33h30v-279h-30l-9 31q-15 52 -35 68.5t-66 16.5h-56v-244h179q44 0 63 8.5t39 37.5l66 97l25 -4l-27 -193h-556v36l109 22v521l-109 22v36h513z" />
    <glyph glyph-name="Igrave" unicode="&#xcc;" horiz-adv-x="408" 
d="M248 728l-25 -16q-109 105 -126 132q-27 45 11 71q16 11 35.5 5.5t32.5 -25.5q21 -32 72 -167zM255 58l112 -22v-36h-327v36l113 22v521l-113 22v36h327v-36l-112 -22v-521z" />
    <glyph glyph-name="Iacute" unicode="&#xcd;" horiz-adv-x="408" 
d="M290 915q38 -26 11 -71q-15 -24 -125 -132l-25 16q48 132 71 167q13 20 32.5 25.5t35.5 -5.5zM255 58l112 -22v-36h-327v36l113 22v521l-113 22v36h327v-36l-112 -22v-521z" />
    <glyph glyph-name="Icircumflex" unicode="&#xce;" horiz-adv-x="408" 
d="M206 813l-106 -107l-27 21l119 181h35l112 -181l-27 -21zM255 58l112 -22v-36h-327v36l113 22v521l-113 22v36h327v-36l-112 -22v-521z" />
    <glyph glyph-name="Idieresis" unicode="&#xcf;" horiz-adv-x="408" 
d="M297 729q-25 0 -40.5 16t-15.5 41t18 43.5t44 18.5q25 0 41 -16t16 -41t-18 -43.5t-45 -18.5zM109 729q-25 0 -41 16t-16 41t18 43.5t45 18.5q25 0 40.5 -16t15.5 -41t-18 -43.5t-44 -18.5zM255 58l112 -22v-36h-327v36l113 22v521l-113 22v36h327v-36l-112 -22v-521z
" />
    <glyph glyph-name="Eth" unicode="&#xd0;" horiz-adv-x="744" 
d="M701 319q0 -137 -100 -228t-255 -91h-312v36l110 22v245h-96v55h96v221l-110 22v36h318q160 0 254.5 -90t94.5 -228zM584 319q0 139 -68 202t-184 63h-88v-226h127v-55h-127v-250h110q230 0 230 266z" />
    <glyph glyph-name="Ntilde" unicode="&#xd1;" horiz-adv-x="765" 
d="M233 725q12 65 33.5 95t58.5 30q27 0 76 -24t63 -24t23.5 13t23.5 47l35 -8q-12 -65 -33.5 -95t-58.5 -30q-27 0 -76 24t-63 24t-23.5 -13t-23.5 -47zM133 67v502l-89 30v38h217l70 -102l243 -351h11v386l-99 31v36h246v-36l-89 -31v-576h-58l-70 102l-312 443h-12v-472
l99 -31v-36h-246v36z" />
    <glyph glyph-name="Ograve" unicode="&#xd2;" horiz-adv-x="714" 
d="M385 728l-25 -16q-109 105 -126 132q-27 45 11 71q16 11 35.5 5.5t32.5 -25.5q21 -32 72 -167zM669 319q0 -140 -88 -237t-228 -97q-145 0 -227.5 96t-82.5 238q0 139 88 236t228 97q145 0 227.5 -95.5t82.5 -237.5zM552 319q0 140 -62 215t-145 75q-79 0 -132 -67.5
t-53 -222.5q0 -154 60 -222.5t147 -68.5q76 0 130.5 75t54.5 216z" />
    <glyph glyph-name="Oacute" unicode="&#xd3;" horiz-adv-x="714" 
d="M438 915q38 -26 11 -71q-15 -24 -125 -132l-25 16q48 132 71 167q13 20 32.5 25.5t35.5 -5.5zM669 319q0 -140 -88 -237t-228 -97q-145 0 -227.5 96t-82.5 238q0 139 88 236t228 97q145 0 227.5 -95.5t82.5 -237.5zM552 319q0 140 -62 215t-145 75q-79 0 -132 -67.5
t-53 -222.5q0 -154 60 -222.5t147 -68.5q76 0 130.5 75t54.5 216z" />
    <glyph glyph-name="Ocircumflex" unicode="&#xd4;" horiz-adv-x="714" 
d="M354 813l-106 -107l-27 21l119 181h35l112 -181l-27 -21zM669 319q0 -140 -88 -237t-228 -97q-145 0 -227.5 96t-82.5 238q0 139 88 236t228 97q145 0 227.5 -95.5t82.5 -237.5zM552 319q0 140 -62 215t-145 75q-79 0 -132 -67.5t-53 -222.5q0 -154 60 -222.5t147 -68.5
q76 0 130.5 75t54.5 216z" />
    <glyph glyph-name="Otilde" unicode="&#xd5;" horiz-adv-x="714" 
d="M200 725q12 65 33.5 95t58.5 30q27 0 76 -24t63 -24t23.5 13t23.5 47l35 -8q-12 -65 -33.5 -95t-58.5 -30q-27 0 -76 24t-63 24t-23.5 -13t-23.5 -47zM669 319q0 -140 -88 -237t-228 -97q-145 0 -227.5 96t-82.5 238q0 139 88 236t228 97q145 0 227.5 -95.5t82.5 -237.5z
M552 319q0 140 -62 215t-145 75q-79 0 -132 -67.5t-53 -222.5q0 -154 60 -222.5t147 -68.5q76 0 130.5 75t54.5 216z" />
    <glyph glyph-name="Odieresis" unicode="&#xd6;" horiz-adv-x="714" 
d="M445 729q-25 0 -40.5 16t-15.5 41t18 43.5t44 18.5q25 0 41 -16t16 -41t-18 -43.5t-45 -18.5zM257 729q-25 0 -41 16t-16 41t18 43.5t45 18.5q25 0 40.5 -16t15.5 -41t-18 -43.5t-44 -18.5zM669 319q0 -140 -88 -237t-228 -97q-145 0 -227.5 96t-82.5 238q0 139 88 236
t228 97q145 0 227.5 -95.5t82.5 -237.5zM552 319q0 140 -62 215t-145 75q-79 0 -132 -67.5t-53 -222.5q0 -154 60 -222.5t147 -68.5q76 0 130.5 75t54.5 216z" />
    <glyph glyph-name="multiply" unicode="&#xd7;" horiz-adv-x="520" 
d="M300 305l140 -144l-42 -41l-138 143l-138 -143l-42 41l140 144l-140 144l42 41l138 -143l138 143l42 -41z" />
    <glyph glyph-name="Oslash" unicode="&#xd8;" horiz-adv-x="714" 
d="M669 319q0 -140 -88 -237t-228 -97q-116 0 -197 68l-72 -85l-31 24l75 88q-85 94 -85 239q0 139 88 236t228 97q116 0 197 -68l73 85l30 -25l-75 -88q85 -94 85 -237zM188 151l312 367q-59 91 -155 91q-79 0 -132 -67.5t-53 -222.5q0 -103 28 -168zM521 481l-313 -367
q55 -86 159 -86q76 0 130.5 75t54.5 216q0 95 -31 162z" />
    <glyph glyph-name="Ugrave" unicode="&#xd9;" horiz-adv-x="748" 
d="M454 728l-25 -16q-109 105 -126 132q-27 45 11 71q16 11 35.5 5.5t32.5 -25.5q21 -32 72 -167zM574 570l-89 31v36h237v-36l-89 -31v-348q0 -105 -67.5 -172t-184.5 -67q-123 0 -190.5 59.5t-67.5 175.5v361l-99 22v36h312v-36l-109 -22v-353q0 -183 183 -183
q78 0 121 51.5t43 137.5v338z" />
    <glyph glyph-name="Uacute" unicode="&#xda;" horiz-adv-x="748" 
d="M504 915q38 -26 11 -71q-15 -24 -125 -132l-25 16q48 132 71 167q13 20 32.5 25.5t35.5 -5.5zM574 570l-89 31v36h237v-36l-89 -31v-348q0 -105 -67.5 -172t-184.5 -67q-123 0 -190.5 59.5t-67.5 175.5v361l-99 22v36h312v-36l-109 -22v-353q0 -183 183 -183
q78 0 121 51.5t43 137.5v338z" />
    <glyph glyph-name="Ucircumflex" unicode="&#xdb;" horiz-adv-x="748" 
d="M412 813l-106 -107l-27 21l119 181h35l112 -181l-27 -21zM574 570l-89 31v36h237v-36l-89 -31v-348q0 -105 -67.5 -172t-184.5 -67q-123 0 -190.5 59.5t-67.5 175.5v361l-99 22v36h312v-36l-109 -22v-353q0 -183 183 -183q78 0 121 51.5t43 137.5v338z" />
    <glyph glyph-name="Udieresis" unicode="&#xdc;" horiz-adv-x="748" 
d="M497 729q-25 0 -40.5 16t-15.5 41t18 43.5t44 18.5q25 0 41 -16t16 -41t-18 -43.5t-45 -18.5zM309 729q-25 0 -41 16t-16 41t18 43.5t45 18.5q25 0 40.5 -16t15.5 -41t-18 -43.5t-44 -18.5zM574 570l-89 31v36h237v-36l-89 -31v-348q0 -105 -67.5 -172t-184.5 -67
q-123 0 -190.5 59.5t-67.5 175.5v361l-99 22v36h312v-36l-109 -22v-353q0 -183 183 -183q78 0 121 51.5t43 137.5v338z" />
    <glyph glyph-name="Yacute" unicode="&#xdd;" horiz-adv-x="658" 
d="M469 915q38 -26 11 -71q-15 -24 -125 -132l-25 16q48 132 71 167q13 20 32.5 25.5t35.5 -5.5zM578 570l-190 -288v-224l116 -22v-36h-334v36l116 22v207l-198 313l-91 23v36h295v-36l-91 -18l161 -261l153 251l-88 28v36h237v-36z" />
    <glyph glyph-name="Thorn" unicode="&#xde;" horiz-adv-x="605" 
d="M558 328q0 -88 -61.5 -142.5t-159.5 -54.5q-43 0 -101 9v-82l112 -22v-36h-323v36l109 22v521l-109 22v36h324v-36l-113 -22v-81q35 7 80 7q114 0 178 -47t64 -130zM448 323q0 69 -39.5 103t-106.5 34q-36 0 -66 -6v-269q30 -5 69 -5q69 0 106 36t37 107z" />
    <glyph glyph-name="germandbls" unicode="&#xdf;" horiz-adv-x="608" 
d="M570 134q0 -65 -41 -106.5t-110 -41.5q-50 0 -82.5 19.5t-32.5 52.5q0 21 13.5 35t33.5 14q28 0 41 -20t11 -54q13 -9 34 -9q28 0 45.5 21t17.5 57q0 52 -48.5 99t-171.5 107v16q82 87 107.5 133.5t25.5 103.5q0 54 -30.5 87.5t-78.5 33.5q-99 0 -99 -157v-472l48 -21
v-32h-206v32l71 22v333h-90v32l90 26v32q0 129 87 205q69 59 140 59q69 0 113.5 -46.5t44.5 -113.5q0 -60 -31 -109t-99 -107v-11q104 -57 150.5 -105.5t46.5 -114.5z" />
    <glyph glyph-name="agrave" unicode="&#xe0;" horiz-adv-x="476" 
d="M283 542l-25 -16q-109 105 -126 132q-27 45 11 71q16 11 35.5 5.5t32.5 -25.5q21 -32 72 -167zM393 331v-252q0 -23 17.5 -32t65.5 -6l3 -22q-15 -11 -47.5 -20.5t-58.5 -9.5q-29 0 -44 16.5t-17 55.5l-9 2q-74 -74 -146 -74q-50 0 -79 29.5t-29 76.5q0 141 259 164v48
q0 59 -23.5 81.5t-77.5 22.5q-37 0 -69 -16q33 -24 33 -52q0 -23 -15 -38t-38 -15q-24 0 -39 15t-15 39q0 51 63 85t139 34q127 0 127 -132zM308 98v124q-176 -7 -176 -100q0 -67 69 -67q46 0 107 43z" />
    <glyph glyph-name="aacute" unicode="&#xe1;" horiz-adv-x="476" 
d="M333 729q38 -26 11 -71q-15 -24 -125 -132l-25 16q48 132 71 167q13 20 32.5 25.5t35.5 -5.5zM393 331v-252q0 -23 17.5 -32t65.5 -6l3 -22q-15 -11 -47.5 -20.5t-58.5 -9.5q-29 0 -44 16.5t-17 55.5l-9 2q-74 -74 -146 -74q-50 0 -79 29.5t-29 76.5q0 141 259 164v48
q0 59 -23.5 81.5t-77.5 22.5q-37 0 -69 -16q33 -24 33 -52q0 -23 -15 -38t-38 -15q-24 0 -39 15t-15 39q0 51 63 85t139 34q127 0 127 -132zM308 98v124q-176 -7 -176 -100q0 -67 69 -67q46 0 107 43z" />
    <glyph glyph-name="acircumflex" unicode="&#xe2;" horiz-adv-x="476" 
d="M247 627l-106 -107l-27 21l119 181h35l112 -181l-27 -21zM393 331v-252q0 -23 17.5 -32t65.5 -6l3 -22q-15 -11 -47.5 -20.5t-58.5 -9.5q-29 0 -44 16.5t-17 55.5l-9 2q-74 -74 -146 -74q-50 0 -79 29.5t-29 76.5q0 141 259 164v48q0 59 -23.5 81.5t-77.5 22.5
q-37 0 -69 -16q33 -24 33 -52q0 -23 -15 -38t-38 -15q-24 0 -39 15t-15 39q0 51 63 85t139 34q127 0 127 -132zM308 98v124q-176 -7 -176 -100q0 -67 69 -67q46 0 107 43z" />
    <glyph glyph-name="atilde" unicode="&#xe3;" horiz-adv-x="476" 
d="M84 539q12 65 33.5 95t58.5 30q27 0 76 -24t63 -24t23.5 13t23.5 47l35 -8q-12 -65 -33.5 -95t-58.5 -30q-27 0 -76 24t-63 24t-23.5 -13t-23.5 -47zM393 331v-252q0 -23 17.5 -32t65.5 -6l3 -22q-15 -11 -47.5 -20.5t-58.5 -9.5q-29 0 -44 16.5t-17 55.5l-9 2
q-74 -74 -146 -74q-50 0 -79 29.5t-29 76.5q0 141 259 164v48q0 59 -23.5 81.5t-77.5 22.5q-37 0 -69 -16q33 -24 33 -52q0 -23 -15 -38t-38 -15q-24 0 -39 15t-15 39q0 51 63 85t139 34q127 0 127 -132zM308 98v124q-176 -7 -176 -100q0 -67 69 -67q46 0 107 43z" />
    <glyph glyph-name="adieresis" unicode="&#xe4;" horiz-adv-x="476" 
d="M329 543q-25 0 -40.5 16t-15.5 41t18 43.5t44 18.5q25 0 41 -16t16 -41t-18 -43.5t-45 -18.5zM141 543q-25 0 -41 16t-16 41t18 43.5t45 18.5q25 0 40.5 -16t15.5 -41t-18 -43.5t-44 -18.5zM393 331v-252q0 -23 17.5 -32t65.5 -6l3 -22q-15 -11 -47.5 -20.5t-58.5 -9.5
q-29 0 -44 16.5t-17 55.5l-9 2q-74 -74 -146 -74q-50 0 -79 29.5t-29 76.5q0 141 259 164v48q0 59 -23.5 81.5t-77.5 22.5q-37 0 -69 -16q33 -24 33 -52q0 -23 -15 -38t-38 -15q-24 0 -39 15t-15 39q0 51 63 85t139 34q127 0 127 -132zM308 98v124q-176 -7 -176 -100
q0 -67 69 -67q46 0 107 43z" />
    <glyph glyph-name="aring" unicode="&#xe5;" horiz-adv-x="476" 
d="M348 642q0 -39 -30.5 -70.5t-76.5 -31.5q-45 0 -73.5 29.5t-28.5 72.5q0 39 30.5 70.5t76.5 31.5q45 0 73.5 -29.5t28.5 -72.5zM393 331v-252q0 -23 17.5 -32t65.5 -6l3 -22q-15 -11 -47.5 -20.5t-58.5 -9.5q-29 0 -44 16.5t-17 55.5l-9 2q-74 -74 -146 -74
q-50 0 -79 29.5t-29 76.5q0 141 259 164v48q0 59 -23.5 81.5t-77.5 22.5q-37 0 -69 -16q33 -24 33 -52q0 -23 -15 -38t-38 -15q-24 0 -39 15t-15 39q0 51 63 85t139 34q127 0 127 -132zM302 642q0 36 -17 55.5t-43 19.5q-25 0 -41.5 -20t-16.5 -56t17.5 -55.5t42.5 -19.5
t41.5 20t16.5 56zM308 98v124q-176 -7 -176 -100q0 -67 69 -67q46 0 107 43z" />
    <glyph glyph-name="ae" unicode="&#xe6;" horiz-adv-x="749" 
d="M713 240h-316q1 -89 42 -137.5t121 -48.5q55 0 129 48l18 -28q-95 -90 -183 -90q-117 0 -173 89h-8q-91 -84 -176 -84q-54 0 -86 28t-32 78q0 141 259 164v46q0 57 -23.5 80.5t-77.5 23.5q-37 0 -69 -16q33 -24 33 -52q0 -23 -15 -38t-38 -15q-24 0 -39 15t-15 39
q0 51 63 86t138 35q82 0 109 -69q61 70 151 70q92 0 140 -61.5t48 -162.5zM514 425q-47 0 -79 -40t-37 -108l217 7q-3 68 -29.5 104.5t-71.5 36.5zM330 105q-22 50 -22 117q-176 -7 -176 -100q0 -32 19.5 -49.5t53.5 -17.5q60 0 125 50z" />
    <glyph glyph-name="ccedilla" unicode="&#xe7;" horiz-adv-x="470" 
d="M128 230q0 -82 46.5 -130t118.5 -48q58 0 123 41l20 -23q-44 -50 -100 -72l-87 -72q34 -7 58 -30t24 -61q0 -45 -33.5 -73.5t-82.5 -28.5q-36 0 -58 14t-22 32q0 34 32 34q14 0 23 -9.5t9 -22.5q0 -10 -4 -17q9 -3 23 -3q22 0 38.5 16.5t16.5 42.5q0 27 -18 42.5
t-49 15.5q-7 0 -23 -4l-19 21l106 89h-11q-99 0 -160 62.5t-61 163.5q0 110 70.5 182t178.5 72q64 0 102.5 -29t38.5 -70q0 -29 -16 -46.5t-41 -17.5q-28 0 -44 18t-16 43q0 32 18 55q-21 6 -42 6q-67 0 -113 -51.5t-46 -141.5z" />
    <glyph glyph-name="egrave" unicode="&#xe8;" horiz-adv-x="483" 
d="M297 542l-25 -16q-109 105 -126 132q-27 45 11 71q16 11 35.5 5.5t32.5 -25.5q21 -32 72 -167zM447 240h-316q0 -89 41.5 -137.5t121.5 -48.5q55 0 129 48l18 -28q-95 -90 -183 -90q-97 0 -158.5 64.5t-61.5 168.5q0 105 64.5 176t157.5 71q91 0 139 -61.5t48 -162.5z
M132 277l217 7q-3 68 -29.5 104.5t-71.5 36.5q-47 0 -79 -40t-37 -108z" />
    <glyph glyph-name="eacute" unicode="&#xe9;" horiz-adv-x="483" 
d="M337 729q38 -26 11 -71q-15 -24 -125 -132l-25 16q48 132 71 167q13 20 32.5 25.5t35.5 -5.5zM447 240h-316q0 -89 41.5 -137.5t121.5 -48.5q55 0 129 48l18 -28q-95 -90 -183 -90q-97 0 -158.5 64.5t-61.5 168.5q0 105 64.5 176t157.5 71q91 0 139 -61.5t48 -162.5z
M132 277l217 7q-3 68 -29.5 104.5t-71.5 36.5q-47 0 -79 -40t-37 -108z" />
    <glyph glyph-name="ecircumflex" unicode="&#xea;" horiz-adv-x="483" 
d="M256 627l-106 -107l-27 21l119 181h35l112 -181l-27 -21zM447 240h-316q0 -89 41.5 -137.5t121.5 -48.5q55 0 129 48l18 -28q-95 -90 -183 -90q-97 0 -158.5 64.5t-61.5 168.5q0 105 64.5 176t157.5 71q91 0 139 -61.5t48 -162.5zM132 277l217 7q-3 68 -29.5 104.5
t-71.5 36.5q-47 0 -79 -40t-37 -108z" />
    <glyph glyph-name="edieresis" unicode="&#xeb;" horiz-adv-x="483" 
d="M350 543q-25 0 -40.5 16t-15.5 41t18 43.5t44 18.5q25 0 41 -16t16 -41t-18 -43.5t-45 -18.5zM162 543q-25 0 -41 16t-16 41t18 43.5t45 18.5q25 0 40.5 -16t15.5 -41t-18 -43.5t-44 -18.5zM447 240h-316q0 -89 41.5 -137.5t121.5 -48.5q55 0 129 48l18 -28
q-95 -90 -183 -90q-97 0 -158.5 64.5t-61.5 168.5q0 105 64.5 176t157.5 71q91 0 139 -61.5t48 -162.5zM132 277l217 7q-3 68 -29.5 104.5t-71.5 36.5q-47 0 -79 -40t-37 -108z" />
    <glyph glyph-name="igrave" unicode="&#xec;" horiz-adv-x="289" 
d="M184 542l-25 -16q-109 105 -126 132q-27 45 11 71q16 11 35.5 5.5t32.5 -25.5q21 -32 72 -167zM108 54v311l-70 36v28l153 36l4 -3v-408l67 -22v-32h-225v32z" />
    <glyph glyph-name="iacute" unicode="&#xed;" horiz-adv-x="289" 
d="M235 729q38 -26 11 -71q-15 -24 -125 -132l-25 16q48 132 71 167q13 20 32.5 25.5t35.5 -5.5zM108 54v311l-70 36v28l153 36l4 -3v-408l67 -22v-32h-225v32z" />
    <glyph glyph-name="icircumflex" unicode="&#xee;" horiz-adv-x="289" 
d="M145 627l-106 -107l-27 21l119 181h35l112 -181l-27 -21zM108 54v311l-70 36v28l153 36l4 -3v-408l67 -22v-32h-225v32z" />
    <glyph glyph-name="idieresis" unicode="&#xef;" horiz-adv-x="289" 
d="M234 543q-25 0 -40.5 16t-15.5 41t18 43.5t44 18.5q25 0 41 -16t16 -41t-18 -43.5t-45 -18.5zM46 543q-25 0 -41 16t-16 41t18 43.5t45 18.5q25 0 40.5 -16t15.5 -41t-18 -43.5t-44 -18.5zM108 54v311l-70 36v28l153 36l4 -3v-408l67 -22v-32h-225v32z" />
    <glyph glyph-name="eth" unicode="&#xf0;" horiz-adv-x="548" 
d="M505 293q0 -136 -69 -222.5t-172 -86.5q-99 0 -162.5 65.5t-63.5 174.5q0 98 64.5 168.5t160.5 70.5q59 0 110 -32l9 4q-26 85 -83 148l-99 -43l-20 49l79 34q-49 45 -121 85l13 33q91 -31 172 -90l118 52l20 -49l-94 -41q138 -130 138 -320zM407 258q0 65 -19 131
q-46 18 -96 18q-67 0 -111 -50t-44 -140q0 -87 42 -136t98 -49q130 0 130 226z" />
    <glyph glyph-name="ntilde" unicode="&#xf1;" horiz-adv-x="566" 
d="M124 539q12 65 33.5 95t58.5 30q27 0 76 -24t63 -24t23.5 13t23.5 47l35 -8q-12 -65 -33.5 -95t-58.5 -30q-27 0 -76 24t-63 24t-23.5 -13t-23.5 -47zM480 325v-271l71 -22v-32h-226v32l68 22v229q0 111 -86 111q-50 0 -117 -46v-294l67 -22v-32h-225v32l71 22v311
l-70 36v28l147 36l9 -8l-7 -75l9 -2q90 84 163 84q62 0 94 -38.5t32 -100.5z" />
    <glyph glyph-name="ograve" unicode="&#xf2;" horiz-adv-x="527" 
d="M316 542l-25 -16q-109 105 -126 132q-27 45 11 71q16 11 35.5 5.5t32.5 -25.5q21 -32 72 -167zM489 227q0 -101 -63.5 -172t-168.5 -71q-102 0 -160.5 67t-58.5 173q0 100 64 170t169 70q104 0 161 -65.5t57 -171.5zM390 227q0 98 -35 145t-95 47q-55 0 -89 -48.5
t-34 -149.5q0 -97 36.5 -144.5t93.5 -47.5q123 0 123 198z" />
    <glyph glyph-name="oacute" unicode="&#xf3;" horiz-adv-x="527" 
d="M349 729q38 -26 11 -71q-15 -24 -125 -132l-25 16q48 132 71 167q13 20 32.5 25.5t35.5 -5.5zM489 227q0 -101 -63.5 -172t-168.5 -71q-102 0 -160.5 67t-58.5 173q0 100 64 170t169 70q104 0 161 -65.5t57 -171.5zM390 227q0 98 -35 145t-95 47q-55 0 -89 -48.5
t-34 -149.5q0 -97 36.5 -144.5t93.5 -47.5q123 0 123 198z" />
    <glyph glyph-name="ocircumflex" unicode="&#xf4;" horiz-adv-x="527" 
d="M262 627l-106 -107l-27 21l119 181h35l112 -181l-27 -21zM489 227q0 -101 -63.5 -172t-168.5 -71q-102 0 -160.5 67t-58.5 173q0 100 64 170t169 70q104 0 161 -65.5t57 -171.5zM390 227q0 98 -35 145t-95 47q-55 0 -89 -48.5t-34 -149.5q0 -97 36.5 -144.5t93.5 -47.5
q123 0 123 198z" />
    <glyph glyph-name="otilde" unicode="&#xf5;" horiz-adv-x="527" 
d="M103 539q12 65 33.5 95t58.5 30q27 0 76 -24t63 -24t23.5 13t23.5 47l35 -8q-12 -65 -33.5 -95t-58.5 -30q-27 0 -76 24t-63 24t-23.5 -13t-23.5 -47zM489 227q0 -101 -63.5 -172t-168.5 -71q-102 0 -160.5 67t-58.5 173q0 100 64 170t169 70q104 0 161 -65.5t57 -171.5z
M390 227q0 98 -35 145t-95 47q-55 0 -89 -48.5t-34 -149.5q0 -97 36.5 -144.5t93.5 -47.5q123 0 123 198z" />
    <glyph glyph-name="odieresis" unicode="&#xf6;" horiz-adv-x="527" 
d="M353 543q-25 0 -40.5 16t-15.5 41t18 43.5t44 18.5q25 0 41 -16t16 -41t-18 -43.5t-45 -18.5zM165 543q-25 0 -41 16t-16 41t18 43.5t45 18.5q25 0 40.5 -16t15.5 -41t-18 -43.5t-44 -18.5zM489 227q0 -101 -63.5 -172t-168.5 -71q-102 0 -160.5 67t-58.5 173
q0 100 64 170t169 70q104 0 161 -65.5t57 -171.5zM390 227q0 98 -35 145t-95 47q-55 0 -89 -48.5t-34 -149.5q0 -97 36.5 -144.5t93.5 -47.5q123 0 123 198z" />
    <glyph glyph-name="divide" unicode="&#xf7;" horiz-adv-x="520" 
d="M259 519q25 0 42.5 -17.5t17.5 -42.5t-17.5 -42.5t-42.5 -17.5t-42.5 17.5t-17.5 42.5t17.5 42.5t42.5 17.5zM473 279h-428v56h428v-56zM259 214q25 0 42.5 -17.5t17.5 -42.5t-17.5 -42.5t-42.5 -17.5t-42.5 17.5t-17.5 42.5t17.5 42.5t42.5 17.5z" />
    <glyph glyph-name="oslash" unicode="&#xf8;" horiz-adv-x="527" 
d="M433 395q56 -62 56 -168q0 -101 -63.5 -172t-168.5 -71q-77 0 -133 43l-45 -54l-31 24l47 56q-57 66 -57 171q0 100 64 170t169 70q80 0 133 -42l45 53l30 -25zM359 368q-33 53 -99 53q-56 0 -90 -49.5t-34 -150.5q0 -58 14 -102zM391 227q0 58 -13 102l-209 -248
q34 -54 98 -54q124 0 124 200z" />
    <glyph glyph-name="ugrave" unicode="&#xf9;" horiz-adv-x="561" 
d="M314 542l-25 -16q-109 105 -126 132q-27 45 11 71q16 11 35.5 5.5t32.5 -25.5q21 -32 72 -167zM464 78l71 -30v-29l-148 -35l-9 7l7 75l-9 2q-90 -84 -163 -84q-62 0 -94 40t-32 101v247l-70 34v23l148 36l9 -8v-290q0 -113 86 -113q50 0 117 46v272l-71 34v23l149 36
l9 -8v-379z" />
    <glyph glyph-name="uacute" unicode="&#xfa;" horiz-adv-x="561" 
d="M363 729q38 -26 11 -71q-15 -24 -125 -132l-25 16q48 132 71 167q13 20 32.5 25.5t35.5 -5.5zM464 78l71 -30v-29l-148 -35l-9 7l7 75l-9 2q-90 -84 -163 -84q-62 0 -94 40t-32 101v247l-70 34v23l148 36l9 -8v-290q0 -113 86 -113q50 0 117 46v272l-71 34v23l149 36
l9 -8v-379z" />
    <glyph glyph-name="ucircumflex" unicode="&#xfb;" horiz-adv-x="561" 
d="M271 627l-106 -107l-27 21l119 181h35l112 -181l-27 -21zM464 78l71 -30v-29l-148 -35l-9 7l7 75l-9 2q-90 -84 -163 -84q-62 0 -94 40t-32 101v247l-70 34v23l148 36l9 -8v-290q0 -113 86 -113q50 0 117 46v272l-71 34v23l149 36l9 -8v-379z" />
    <glyph glyph-name="udieresis" unicode="&#xfc;" horiz-adv-x="561" 
d="M358 543q-25 0 -40.5 16t-15.5 41t18 43.5t44 18.5q25 0 41 -16t16 -41t-18 -43.5t-45 -18.5zM170 543q-25 0 -41 16t-16 41t18 43.5t45 18.5q25 0 40.5 -16t15.5 -41t-18 -43.5t-44 -18.5zM464 78l71 -30v-29l-148 -35l-9 7l7 75l-9 2q-90 -84 -163 -84q-62 0 -94 40
t-32 101v247l-70 34v23l148 36l9 -8v-290q0 -113 86 -113q50 0 117 46v272l-71 34v23l149 36l9 -8v-379z" />
    <glyph glyph-name="yacute" unicode="&#xfd;" horiz-adv-x="492" 
d="M374 729q38 -26 11 -71q-15 -24 -125 -132l-25 16q48 132 71 167q13 20 32.5 25.5t35.5 -5.5zM427 381l-189 -466q-27 -67 -59 -96t-76 -29q-35 0 -54 17t-19 42q0 21 15.5 35.5t37.5 14.5q38 0 71 -48q24 24 48 79l25 63l-163 398l-65 25v32h226v-31l-60 -21l105 -295h8
l97 288l-69 28v31h191v-32z" />
    <glyph glyph-name="thorn" unicode="&#xfe;" horiz-adv-x="535" 
d="M494 237q0 -101 -70 -177t-177 -76q-41 0 -85 11v-145l86 -28v-32h-244v32l71 28v786l-78 37v29l156 39l9 -7v-339l9 -2q39 36 71 53.5t71 17.5q76 0 128.5 -62t52.5 -165zM403 213q0 86 -37.5 134t-102.5 48q-45 0 -101 -43v-273q58 -53 114 -53q55 0 91 45t36 142z" />
    <glyph glyph-name="ydieresis" unicode="&#xff;" horiz-adv-x="492" 
d="M358 543q-25 0 -40.5 16t-15.5 41t18 43.5t44 18.5q25 0 41 -16t16 -41t-18 -43.5t-45 -18.5zM170 543q-25 0 -41 16t-16 41t18 43.5t45 18.5q25 0 40.5 -16t15.5 -41t-18 -43.5t-44 -18.5zM427 381l-189 -466q-27 -67 -59 -96t-76 -29q-35 0 -54 17t-19 42
q0 21 15.5 35.5t37.5 14.5q38 0 71 -48q24 24 48 79l25 63l-163 398l-65 25v32h226v-31l-60 -21l105 -295h8l97 288l-69 28v31h191v-32z" />
    <glyph glyph-name="dotlessi" unicode="&#x131;" horiz-adv-x="289" 
d="M108 54v311l-70 36v28l153 36l4 -3v-408l67 -22v-32h-225v32z" />
    <glyph glyph-name="Lslash" unicode="&#x141;" horiz-adv-x="628" 
d="M595 203l-26 -203h-535v36l110 22v209l-72 -19l-15 54l87 23v254l-110 22v36h325v-36l-115 -22v-226l117 30l15 -53l-132 -36v-239h155q42 0 61 11t42 44l69 97z" />
    <glyph glyph-name="lslash" unicode="&#x142;" horiz-adv-x="327" 
d="M213 342v-288l67 -22v-32h-225v32l71 22v264l-81 -22l-15 54l96 25v261l-78 37v29l156 39l9 -7v-336l87 24l15 -53z" />
    <glyph glyph-name="OE" unicode="&#x152;" horiz-adv-x="1007" 
d="M973 193l-27 -193h-554q-160 0 -254.5 90t-94.5 228q0 137 100 228t255 91h505l24 -169l-24 -7l-58 73q-24 31 -44.5 40.5t-66.5 9.5h-133v-240h56q46 0 66.5 16.5t34.5 67.5l9 33h30v-279h-30l-9 31q-15 52 -35 68.5t-66 16.5h-56v-244h179q44 0 63 8.5t39 37.5l66 97z
M160 318q0 -138 68.5 -201t183.5 -63h87v529h-109q-230 0 -230 -265z" />
    <glyph glyph-name="oe" unicode="&#x153;" horiz-adv-x="840" 
d="M488 240q0 -89 41.5 -137.5t121.5 -48.5q53 0 129 48l18 -28q-94 -90 -182 -90q-114 0 -177 98q-66 -98 -184 -98q-100 0 -158.5 67.5t-58.5 172.5q0 100 63.5 170t167.5 70q118 0 178 -96q66 96 170 96q91 0 139 -61.5t48 -162.5h-316zM489 277l217 7q-3 68 -29.5 104.5
t-71.5 36.5q-47 0 -79 -40t-37 -108zM390 227q0 98 -35 145t-95 47q-55 0 -89 -48.5t-34 -149.5q0 -97 36.5 -144.5t93.5 -47.5q123 0 123 198z" />
    <glyph glyph-name="Scaron" unicode="&#x160;" horiz-adv-x="533" 
d="M267 819l106 107l27 -21l-119 -181h-35l-112 181l27 21zM482 184q0 -93 -64.5 -146t-148.5 -53q-83 0 -146 29l-21 -32h-39l-12 219l38 2q37 -98 82 -139t106 -41q54 0 85.5 32t31.5 84q0 44 -27 74.5t-93 58.5q-13 6 -43 17.5t-47 19.5q-111 55 -111 162q0 83 56.5 132
t135.5 49q65 0 114 -28l22 31h37l17 -192l-37 -2q-42 86 -77.5 119.5t-84.5 33.5q-42 0 -68.5 -27.5t-26.5 -70.5t22.5 -70.5t75.5 -50.5q97 -42 102 -44q62 -30 91.5 -69.5t29.5 -97.5z" />
    <glyph glyph-name="scaron" unicode="&#x161;" horiz-adv-x="412" 
d="M212 633l106 107l27 -21l-119 -181h-35l-112 181l27 21zM374 135q0 -67 -50 -107t-129 -40q-80 0 -151 27v126l34 3q22 -63 53 -89t78 -26q37 0 61 19.5t24 51.5q0 30 -22 49.5t-83 42.5q-72 28 -105 57.5t-33 78.5q0 58 45.5 97.5t117.5 39.5q77 0 132 -21l3 -111
l-31 -6q-26 54 -53.5 75.5t-65.5 21.5q-33 0 -53 -17.5t-20 -43.5q0 -27 21 -45t76 -38q86 -33 118.5 -63t32.5 -82z" />
    <glyph glyph-name="Ydieresis" unicode="&#x178;" horiz-adv-x="658" 
d="M448 729q-25 0 -40.5 16t-15.5 41t18 43.5t44 18.5q25 0 41 -16t16 -41t-18 -43.5t-45 -18.5zM260 729q-25 0 -41 16t-16 41t18 43.5t45 18.5q25 0 40.5 -16t15.5 -41t-18 -43.5t-44 -18.5zM578 570l-190 -288v-224l116 -22v-36h-334v36l116 22v207l-198 313l-91 23v36
h295v-36l-91 -18l161 -261l153 251l-88 28v36h237v-36z" />
    <glyph glyph-name="Zcaron" unicode="&#x17d;" horiz-adv-x="648" 
d="M337 819l106 107l27 -21l-119 -181h-35l-112 181l27 21zM600 200l-26 -200h-530l-4 26l418 562h-188q-42 0 -64.5 -13t-46.5 -47l-56 -74l-27 7l24 176h487l4 -26l-418 -561h234q39 0 60 11.5t40 41.5l66 101z" />
    <glyph glyph-name="zcaron" unicode="&#x17e;" horiz-adv-x="492" 
d="M254 633l106 107l27 -21l-119 -181h-35l-112 181l27 21zM452 425l-299 -381h180l90 96l27 -6l-16 -134h-396l-3 23l298 381h-166l-82 -96l-26 6l12 134h378z" />
    <glyph glyph-name="florin" unicode="&#x192;" horiz-adv-x="524" 
d="M506 566q0 -20 -16 -34.5t-39 -14.5q-64 0 -83 68q-41 -20 -65 -65t-43 -154l-4 -20h109l-12 -56h-108l-36 -170q-23 -113 -44 -163t-66 -94q-50 -48 -113 -48q-39 0 -60 14.5t-21 38.5q0 20 16.5 34.5t40.5 14.5q45 0 81 -50q22 22 35 53t25 94l57 276h-102l7 33l107 29
l3 15q18 89 44 135.5t74 83.5q54 42 123 42q40 0 65 -17t25 -45z" />
    <glyph glyph-name="circumflex" unicode="&#x2c6;" horiz-adv-x="299" 
d="M150 627l-106 -107l-27 21l119 181h35l112 -181l-27 -21z" />
    <glyph glyph-name="caron" unicode="&#x2c7;" horiz-adv-x="299" 
d="M150 633l106 107l27 -21l-119 -181h-35l-112 181l27 21z" />
    <glyph glyph-name="breve" unicode="&#x2d8;" horiz-adv-x="336" 
d="M169 612q40 0 63 20.5t41 68.5l33 -9q-5 -73 -40.5 -114t-96.5 -41t-97 41t-42 114l33 9q18 -48 42 -68.5t64 -20.5z" />
    <glyph glyph-name="dotaccent" unicode="&#x2d9;" horiz-adv-x="192" 
d="M159 605q0 -27 -19 -46.5t-47 -19.5q-26 0 -43 17.5t-17 43.5q0 27 19 46.5t47 19.5q26 0 43 -17.5t17 -43.5z" />
    <glyph glyph-name="ring" unicode="&#x2da;" horiz-adv-x="259" 
d="M234 642q0 -39 -30.5 -70.5t-76.5 -31.5q-45 0 -73.5 29.5t-28.5 72.5q0 39 30.5 70.5t76.5 31.5q45 0 73.5 -29.5t28.5 -72.5zM188 642q0 36 -17 55.5t-43 19.5q-25 0 -41.5 -20t-16.5 -56t17.5 -55.5t42.5 -19.5t41.5 20t16.5 56z" />
    <glyph glyph-name="ogonek" unicode="&#x2db;" horiz-adv-x="269" 
d="M216 30q-83 -66 -113 -101t-30 -75q0 -65 64 -65q22 0 58 24l19 -19q-49 -52 -105 -52q-49 0 -77.5 27.5t-28.5 71.5q0 54 45.5 101.5t149.5 109.5z" />
    <glyph glyph-name="tilde" unicode="&#x2dc;" horiz-adv-x="331" 
d="M9 539q12 65 33.5 95t58.5 30q27 0 76 -24t63 -24t23.5 13t23.5 47l35 -8q-12 -65 -33.5 -95t-58.5 -30q-27 0 -76 24t-63 24t-23.5 -13t-23.5 -47z" />
    <glyph glyph-name="hungarumlaut" unicode="&#x2dd;" horiz-adv-x="320" 
d="M302 661q-5 -8 -13.5 -19.5t-22 -26.5t-24.5 -27t-29.5 -32t-28.5 -30l-23 16q48 139 64 166q11 19 30.5 25t34.5 -4q38 -24 12 -68zM157 661q-5 -8 -13.5 -19.5t-22 -26.5t-24.5 -27t-29.5 -32t-28.5 -30l-23 16q48 139 64 166q11 19 30.5 25t34.5 -4q38 -24 12 -68z
" />
    <glyph glyph-name="Delta" unicode="&#x394;" 
d="M25 -200v1000h450v-1000h-450z" />
    <glyph glyph-name="Omega" unicode="&#x3a9;" horiz-adv-x="616" 
d="M493 442h124v-55h-124v-333l86 -22v-32h-244v32l71 22v333h-201v-333l81 -22v-32h-239v32l71 22v333h-90v32l90 26v13q0 162 110 233q53 34 125 34q85 0 116 -48q10 10 16 15q55 48 124 48q40 0 62 -17t22 -42q0 -24 -14 -37.5t-37 -13.5q-45 0 -85 62q-64 -37 -64 -167
v-83zM205 442h201v51q0 58 14 103q-55 7 -73 88q-67 -2 -104.5 -53.5t-37.5 -145.5v-43z" />
    <glyph glyph-name="pi" unicode="&#x3c0;" horiz-adv-x="788" 
d="M745 320q0 -146 -103 -248.5t-248 -102.5t-248 102.5t-103 248.5q0 145 103 247t248 102t248 -102t103 -247zM710 320q0 133 -91.5 225.5t-224.5 92.5t-225 -92.5t-92 -225.5q0 -135 92 -228t225 -93t224.5 93t91.5 228zM557 394q0 -44 -34.5 -78.5t-92.5 -34.5
q-29 0 -59 5v-113l55 -12v-27h-178v27l53 12v291l-53 12v24h171q66 0 102 -31t36 -75zM482 394q0 73 -72 75q-31 0 -39 -1v-154q7 -2 41 -2q70 3 70 82z" />
    <glyph glyph-name="endash" unicode="&#x2013;" horiz-adv-x="540" 
d="M488 218h-436v57h436v-57z" />
    <glyph glyph-name="emdash" unicode="&#x2014;" horiz-adv-x="790" 
d="M738 218h-686v57h686v-57z" />
    <glyph glyph-name="quoteleft" unicode="&#x2018;" horiz-adv-x="231" 
d="M181 441q0 -27 -18.5 -46.5t-45.5 -19.5q-33 0 -53 23t-20 59q0 112 145 201l19 -23q-94 -73 -106 -142l7 -4l1 1q9 5 24 5q20 0 33.5 -15t13.5 -39z" />
    <glyph glyph-name="quoteright" unicode="&#x2019;" horiz-adv-x="231" 
d="M187 570q0 -112 -145 -200l-19 23q94 73 106 141l-7 4l-1 -1q-9 -5 -24 -5q-20 0 -33.5 15.5t-13.5 38.5q0 27 18.5 46.5t45.5 19.5q34 0 53.5 -22.5t19.5 -59.5z" />
    <glyph glyph-name="quotesinglbase" unicode="&#x201a;" horiz-adv-x="231" 
d="M187 30q0 -112 -145 -200l-19 23q94 73 106 141l-7 4l-1 -1q-9 -5 -24 -5q-20 0 -33.5 15.5t-13.5 38.5q0 27 18.5 46.5t45.5 19.5q34 0 53.5 -22.5t19.5 -59.5z" />
    <glyph glyph-name="quotedblleft" unicode="&#x201c;" horiz-adv-x="432" 
d="M382 441q0 -27 -18.5 -46.5t-45.5 -19.5q-33 0 -53 23t-20 59q0 112 145 201l19 -23q-94 -73 -106 -142l7 -4l1 1q9 5 24 5q20 0 33.5 -15t13.5 -39zM181 441q0 -27 -18.5 -46.5t-45.5 -19.5q-33 0 -53 23t-20 59q0 112 145 201l19 -23q-94 -73 -106 -142l7 -4l1 1
q9 5 24 5q20 0 33.5 -15t13.5 -39z" />
    <glyph glyph-name="quotedblright" unicode="&#x201d;" horiz-adv-x="432" 
d="M388 570q0 -112 -145 -200l-19 23q94 73 106 141l-7 4l-1 -1q-9 -5 -24 -5q-20 0 -33.5 15.5t-13.5 38.5q0 27 18.5 46.5t45.5 19.5q34 0 53.5 -22.5t19.5 -59.5zM187 570q0 -112 -145 -200l-19 23q94 73 106 141l-7 4l-1 -1q-9 -5 -24 -5q-20 0 -33.5 15.5t-13.5 38.5
q0 27 18.5 46.5t45.5 19.5q34 0 53.5 -22.5t19.5 -59.5z" />
    <glyph glyph-name="quotedblbase" unicode="&#x201e;" horiz-adv-x="412" 
d="M388 30q0 -112 -145 -200l-19 23q94 73 106 141l-7 4l-1 -1q-9 -5 -24 -5q-20 0 -33.5 15.5t-13.5 38.5q0 27 18.5 46.5t45.5 19.5q34 0 53.5 -22.5t19.5 -59.5zM187 30q0 -112 -145 -200l-19 23q94 73 106 141l-7 4l-1 -1q-9 -5 -24 -5q-20 0 -33.5 15.5t-13.5 38.5
q0 27 18.5 46.5t45.5 19.5q34 0 53.5 -22.5t19.5 -59.5z" />
    <glyph glyph-name="dagger" unicode="&#x2020;" horiz-adv-x="474" 
d="M437 390l-177 6l6 -479h-58l6 479l-177 -6v55l177 -6l-6 231h58l-6 -231l177 6v-55z" />
    <glyph glyph-name="daggerdbl" unicode="&#x2021;" horiz-adv-x="474" 
d="M437 138l-177 6l6 -227h-58l6 227l-177 -6v55l179 -6v213l-179 -6v55l177 -6l-6 227h58l-6 -227l177 6v-55l-179 6v-213l179 6v-55z" />
    <glyph glyph-name="bullet" unicode="&#x2022;" horiz-adv-x="490" 
d="M385 319q0 -59 -41.5 -100t-99.5 -41t-99 41.5t-41 99.5t41 99t99 41t99.5 -41t41.5 -99z" />
    <glyph glyph-name="ellipsis" unicode="&#x2026;" horiz-adv-x="673" 
d="M622 48q0 -26 -19 -45t-45 -19q-27 0 -46 19t-19 45t19 45t46 19q26 0 45 -19t19 -45zM401 48q0 -26 -19 -45t-45 -19q-27 0 -46 19t-19 45t19 45t46 19q26 0 45 -19t19 -45zM180 48q0 -26 -19 -45t-45 -19q-27 0 -46 19t-19 45t19 45t46 19q26 0 45 -19t19 -45z" />
    <glyph glyph-name="perthousand" unicode="&#x2030;" horiz-adv-x="788" 
d="M745 320q0 -146 -103 -248.5t-248 -102.5t-248 102.5t-103 248.5q0 145 103 247t248 102t248 -102t103 -247zM710 320q0 133 -91.5 225.5t-224.5 92.5t-225 -92.5t-92 -225.5q0 -135 92 -228t225 -93t224.5 93t91.5 228zM544 416q0 -35 -27 -59t-76 -33v-7q51 -13 73 -59
q20 -49 40 -71q11 -13 42 -19v-24h-64q-31 0 -43.5 13t-30.5 52l-26 57q-11 23 -24 30t-37 7h-22v-122l53 -13v-24h-174v24l52 13v291l-52 12v25h188q60 0 94 -26.5t34 -66.5zM469 407q0 35 -21 53t-54 18q-36 0 -45 -1v-146l45 1q33 1 54 20t21 55z" />
    <glyph glyph-name="guilsinglleft" unicode="&#x2039;" horiz-adv-x="300" 
d="M136 224l124 -180l-30 -20l-199 190v20l199 191l30 -22z" />
    <glyph glyph-name="guilsinglright" unicode="&#x203a;" horiz-adv-x="300" 
d="M269 234v-20l-199 -191l-30 21l124 180l-124 180l30 20z" />
    <glyph glyph-name="fraction" unicode="&#x2044;" horiz-adv-x="560" 
d="M532 609l-231 -314l-225 -327l-48 32l231 316l225 327z" />
    <glyph glyph-name="trademark" unicode="&#x2122;" horiz-adv-x="820" 
d="M737 605v-223l44 -14v-18h-138v18l36 14v220h-9l-97 -252h-28l-99 252h-10v-217l34 -17v-18h-107v18l38 17v218l-38 15v19h132l17 -50l59 -154h6l57 157l15 47h132v-19zM332 541l-14 -3l-33 42q-16 20 -23.5 26t-22.5 6h-24v-230l46 -14v-18h-149v18l46 14v230h-27
q-15 0 -22.5 -6t-23.5 -26l-32 -42l-14 3l13 96h267z" />
    <glyph glyph-name="partialdiff" unicode="&#x2202;" 
d="M25 -200v1000h450v-1000h-450z" />
    <glyph glyph-name="product" unicode="&#x220f;" 
d="M25 -200v1000h450v-1000h-450z" />
    <glyph glyph-name="summation" unicode="&#x2211;" 
d="M25 -200v1000h450v-1000h-450z" />
    <glyph glyph-name="minus" unicode="&#x2212;" horiz-adv-x="520" 
d="M466 275h-412v62h412v-62z" />
    <glyph glyph-name="radical" unicode="&#x221a;" horiz-adv-x="875" 
d="M781 54l67 -22v-32h-225v32l71 22v333h-201v-333l81 -22v-32h-239v32l71 22v333h-201v-333l81 -22v-32h-239v32l71 22v333h-90v32l90 26v13q0 162 110 233q53 34 125 34q47 0 77.5 -15.5t41.5 -39.5q18 18 44 36q53 34 125 34q55 0 87 -21l44 22l9 -7v-680zM493 442h201
v172q-43 14 -59 85q-67 -2 -104.5 -53.5t-37.5 -145.5v-58zM205 442h201v31q0 74 19 122q-59 3 -78 89q-67 -2 -104.5 -53.5t-37.5 -145.5v-43z" />
    <glyph glyph-name="infinity" unicode="&#x221e;" 
d="M25 -200v1000h450v-1000h-450z" />
    <glyph glyph-name="integral" unicode="&#x222b;" 
d="M25 -200v1000h450v-1000h-450z" />
    <glyph glyph-name="approxequal" unicode="&#x2248;" horiz-adv-x="875" 
d="M493 442h186l98 23l4 -3v-408l67 -22v-32h-225v32l71 22v333h-201v-333l81 -22v-32h-239v32l71 22v333h-201v-333l81 -22v-32h-239v32l71 22v333h-90v32l90 26v13q0 162 110 233q53 34 125 34q47 0 77.5 -15.5t41.5 -39.5q18 18 44 36q53 34 125 34q58 0 91.5 -23.5
t33.5 -54.5q0 -23 -13.5 -37.5t-35.5 -14.5q-63 0 -82 89q-67 -2 -104.5 -53.5t-37.5 -145.5v-58zM205 442h201v31q0 74 19 122q-59 3 -78 89q-67 -2 -104.5 -53.5t-37.5 -145.5v-43z" />
    <glyph glyph-name="notequal" unicode="&#x2260;" 
d="M25 -200v1000h450v-1000h-450z" />
    <glyph glyph-name="lessequal" unicode="&#x2264;" 
d="M25 -200v1000h450v-1000h-450z" />
    <glyph glyph-name="greaterequal" unicode="&#x2265;" 
d="M25 -200v1000h450v-1000h-450z" />
    <glyph glyph-name="lozenge" unicode="&#x25ca;" horiz-adv-x="780" 
d="M276 434q0 -41 -31 -66.5t-74 -25.5q-44 0 -83 17l-14 -22h-19l-4 110l19 3q29 -46 52 -64.5t49 -18.5q56 0 56 45q0 21 -18 32.5t-55 23.5q-46 14 -71 32.5t-25 55.5t29 62.5t68 25.5q37 0 68 -15l13 22h20l6 -100l-19 -4q-32 43 -51.5 57.5t-39.5 14.5q-19 0 -32 -11
t-13 -29q0 -22 18.5 -33.5t57.5 -22.5q30 -9 47 -17t31.5 -26.5t14.5 -45.5zM697 605v-223l44 -14v-18h-138v18l36 14v220h-9l-97 -252h-28l-99 252h-10v-217l34 -17v-18h-107v18l38 17v218l-38 15v19h132l17 -50l59 -154h6l57 157l15 47h132v-19z" />
    <glyph glyph-name="apple" unicode="&#xf8ff;" horiz-adv-x="694" 
d="M644 -200h-208l-8 14h-163l-8 -14h-207v303q14 0 23 9.5t9 22.5t-9.5 22.5t-22.5 9.5v554h100l30 79h334l29 -79h101v-921zM400 563v-172h15v78h38v14h-38v66h43v14h-58zM184 563v-172h15v79h47v-79h15v172h-15v-79h-47v79h-15zM460 394q8 -4 21 -4q31 0 31 36v137h-16
v-137q0 -22 -16 -22q-10 0 -20 6v-16zM349 438l-16 31q23 21 23 42q0 12 -7 21.5t-20 9.5q-12 0 -20 -9.5t-8 -21.5q0 -13 14 -39q-23 -18 -23 -45q0 -17 9 -28t22 -11q17 0 27 24h1l12 -24l11 8l-16 30q10 23 13 39l-13 3q-2 -9 -9 -30zM523 323v-46h8v13l7 7l16 -20h9
l-19 26l18 20h-10l-21 -24v24h-8zM488 292l10 -15h9l-12 17q10 3 10 15q0 5 -4.5 9.5t-11.5 4.5h-21v-46h8v15h12zM426 276q11 0 17.5 7t6.5 17q0 9 -7 16.5t-17 7.5t-16.5 -7.5t-6.5 -16.5q0 -10 6.5 -17t16.5 -7zM370 301l-13 22h-9l18 -29v-17h8v17l18 29h-9zM193 323
v-46h33v7h-25v13h22v7h-22v12h25v7h-33zM132 323v-46h8v32l25 -32h7v46h-8v-32l-25 32h-7zM241 323l15 -47h8l10 34h1l11 -34h8l14 47h-8l-10 -35h-1l-10 35h-8l-11 -35h-1l-10 35h-8zM327 479q-12 22 -12 32q0 19 14 19q13 0 13 -19q0 -15 -15 -32zM342 423q-6 -21 -18 -21
q-17 0 -17 27q0 18 15 33zM488 299h-12v17h11q10 0 10 -8q0 -9 -9 -9zM426 283q-15 0 -15 17q0 6 4.5 11.5t10.5 5.5q7 0 11.5 -5.5t4.5 -11.5q0 -7 -4.5 -12t-11.5 -5z" />
    <glyph glyph-name="fi" unicode="&#xfb01;" horiz-adv-x="587" 
d="M205 387v-333l81 -22v-32h-239v32l71 22v333h-90v32l90 26v28q0 162 110 233q53 34 125 34q58 0 91.5 -23.5t33.5 -54.5q0 -23 -13.5 -37.5t-35.5 -14.5q-63 0 -82 89q-67 -2 -104.5 -53.5t-37.5 -145.5v-58h186l98 23l4 -3v-408l67 -22v-32h-225v32l71 22v333h-201z" />
    <glyph glyph-name="fl" unicode="&#xfb02;" horiz-adv-x="587" 
d="M493 54l67 -22v-32h-225v32l71 22v333h-201v-333l81 -22v-32h-239v32l71 22v333h-90v32l90 26v28q0 162 110 233q53 34 125 34q55 0 87 -21l44 22l9 -7v-680zM406 442v172q-43 14 -59 85q-67 -2 -104.5 -53.5t-37.5 -145.5v-58h201z" />
    <glyph glyph-name="NUL" horiz-adv-x="0" 
 />
    </font>
</defs>
</svg>
